<?xml version="1.0" standalone="no"?>
<!DOCTYPE svg PUBLIC "-//W3C//DTD SVG 20010904//EN"
 "http://www.w3.org/TR/2001/REC-SVG-20010904/DTD/svg10.dtd">
<svg version="1.0" xmlns="http://www.w3.org/2000/svg"
 width="468.000000pt" height="216.000000pt" viewBox="0 0 468.000000 216.000000"
 preserveAspectRatio="xMidYMid meet">
<metadata>
Created by potrace 1.16, written by Peter Selinger 2001-2019
</metadata>
<g transform="translate(0.000000,216.000000) scale(0.100000,-0.100000)"
fill="#000000" stroke="none">
<path d="M1967 1862 l-267 -267 0 -505 0 -505 270 -270 270 -270 0 1043 c0
573 -1 1042 -3 1042 -1 0 -122 -120 -270 -268z"/>
<path d="M3331 1616 c-28 -15 -50 -52 -51 -82 0 -12 -10 -29 -22 -37 l-23 -16
23 0 c20 -1 22 -5 22 -66 0 -52 -4 -69 -20 -85 l-20 -20 62 0 c59 0 61 1 40
16 -19 13 -22 24 -22 85 l0 69 30 0 c38 0 40 18 3 22 -26 3 -28 6 -26 43 2 21
10 46 18 54 13 13 17 13 33 -2 26 -24 44 -21 40 6 -4 27 -50 34 -87 13z"/>
<path d="M3975 1615 c-22 -7 -33 -13 -24 -14 20 -1 29 -21 29 -62 0 -27 -3
-29 -39 -29 -77 0 -131 -83 -97 -148 9 -17 25 -36 35 -41 19 -10 121 -13 154
-4 16 4 16 6 1 20 -13 14 -15 38 -12 155 1 76 1 138 -2 137 -3 0 -23 -6 -45
-14z m-7 -137 c16 -16 16 -120 0 -136 -17 -17 -38 -15 -60 5 -20 18 -25 91 -8
124 12 21 50 25 68 7z"/>
<path d="M2450 1613 c-34 -13 -60 -47 -60 -78 0 -33 19 -54 93 -109 24 -18 37
-35 37 -50 0 -57 -71 -61 -107 -7 -26 38 -38 26 -25 -24 7 -25 15 -31 48 -36
57 -10 91 0 120 34 41 48 22 91 -63 145 -65 41 -73 102 -13 102 24 0 35 -7 48
-30 9 -16 20 -30 25 -30 10 0 9 68 -1 74 -15 9 -86 16 -102 9z"/>
<path d="M545 1090 l-500 -500 270 0 270 1 505 499 505 499 -275 1 -275 0
-500 -500z"/>
<path d="M2628 1521 c-32 -30 -35 -41 -13 -41 12 0 15 -15 15 -73 0 -43 5 -78
12 -85 20 -20 98 -13 98 8 0 5 -12 8 -27 7 -28 -2 -28 -2 -31 71 -3 71 -3 72
23 72 16 0 25 6 25 15 0 9 -9 15 -25 15 -18 0 -25 5 -25 20 0 27 -19 24 -52
-9z"/>
<path d="M2798 1494 c-33 -17 -38 -54 -9 -54 12 0 21 9 25 26 9 36 50 30 54
-9 3 -24 -2 -29 -40 -46 -59 -25 -74 -45 -60 -76 13 -27 56 -34 93 -15 13 8
19 7 19 0 0 -15 62 -8 68 8 2 6 -3 12 -12 12 -13 0 -16 12 -16 59 0 89 -11
111 -57 111 -21 -1 -50 -8 -65 -16z m70 -121 c-3 -30 -32 -43 -51 -24 -7 7 -5
16 8 31 26 29 47 26 43 -7z"/>
<path d="M3015 1503 c-47 -10 -49 -13 -27 -29 18 -13 22 -25 22 -74 0 -49 -4
-61 -22 -74 -21 -15 -19 -16 40 -16 l62 0 -20 20 c-17 17 -20 31 -18 77 3 63
23 87 56 67 25 -16 30 -133 6 -151 -15 -11 -8 -13 46 -13 61 0 63 1 42 16 -19
13 -22 24 -22 77 0 94 -38 130 -101 97 -13 -7 -19 -7 -19 0 0 10 -10 11 -45 3z"/>
<path d="M3442 1485 c-36 -30 -47 -66 -32 -110 35 -107 200 -78 200 35 0 88
-100 133 -168 75z m92 -10 c24 -24 31 -84 15 -114 -34 -60 -89 -23 -89 59 0
65 36 92 74 55z"/>
<path d="M3668 1503 c-31 -5 -37 -18 -13 -27 23 -9 21 -134 -2 -152 -16 -12
-10 -13 42 -13 52 0 58 1 43 13 -14 10 -18 28 -18 73 0 70 15 92 49 71 24 -15
47 1 38 26 -7 18 -39 21 -68 6 -13 -7 -19 -7 -19 0 0 10 -3 10 -52 3z"/>
<path d="M2465 1198 c-87 -248 -93 -269 -78 -266 9 2 22 19 28 38 12 35 12 35
71 35 l59 0 9 -37 c7 -26 15 -38 27 -38 16 0 12 18 -30 138 -33 92 -54 138
-65 140 -9 2 -18 -2 -21 -10z m41 -80 c9 -29 19 -59 22 -65 3 -9 -9 -13 -43
-13 -34 0 -46 4 -43 13 3 6 13 36 22 65 10 28 19 52 21 52 2 0 11 -24 21 -52z"/>
<path d="M2660 1040 c0 -67 4 -110 10 -110 6 0 10 20 10 45 0 41 2 45 24 45
18 0 30 -11 48 -42 13 -24 31 -44 40 -46 15 -3 13 4 -9 43 l-25 46 21 15 c14
10 21 26 21 49 0 49 -21 65 -86 65 l-54 0 0 -110z m101 80 c43 -23 5 -80 -53
-80 -26 0 -28 2 -28 45 0 44 1 45 31 45 17 0 39 -5 50 -10z"/>
<path d="M2850 1141 c0 -6 15 -11 33 -13 l32 -3 3 -97 c4 -130 22 -128 22 2
l0 100 35 0 c19 0 35 5 35 10 0 6 -33 10 -80 10 -44 0 -80 -4 -80 -9z"/>
<path d="M3060 1040 c0 -91 3 -110 15 -110 12 0 15 19 15 110 0 91 -3 110 -15
110 -12 0 -15 -19 -15 -110z"/>
<path d="M3160 1040 c0 -91 3 -110 15 -110 11 0 15 12 15 50 l0 50 40 0 c22 0
40 5 40 10 0 6 -18 10 -40 10 l-40 0 0 40 0 40 50 0 c28 0 50 5 50 10 0 6 -28
10 -65 10 l-65 0 0 -110z"/>
<path d="M3340 1040 c0 -91 3 -110 15 -110 12 0 15 19 15 110 0 91 -3 110 -15
110 -12 0 -15 -19 -15 -110z"/>
<path d="M3474 1135 c-71 -49 -48 -189 33 -210 31 -7 83 12 83 31 0 18 -5 18
-34 -1 -68 -44 -130 79 -75 149 21 27 71 36 84 16 4 -6 11 -8 16 -4 6 4 6 11
-2 20 -15 18 -79 18 -105 -1z"/>
<path d="M3650 1040 c0 -91 3 -110 15 -110 12 0 15 19 15 110 0 91 -3 110 -15
110 -12 0 -15 -19 -15 -110z"/>
<path d="M3771 1066 c-17 -47 -33 -97 -37 -111 -9 -38 13 -31 30 10 13 31 19
35 51 35 32 0 38 -4 51 -35 8 -19 20 -35 27 -35 19 0 -55 214 -76 218 -10 2
-23 -21 -46 -82z m73 -23 c7 -21 4 -23 -29 -23 -20 0 -34 3 -32 8 3 4 11 27
17 52 l13 45 12 -30 c7 -16 16 -40 19 -52z"/>
<path d="M3960 1040 l0 -110 60 0 c33 0 60 4 60 10 0 6 -22 10 -50 10 l-50 0
0 100 c0 60 -4 100 -10 100 -6 0 -10 -43 -10 -110z"/>
<path d="M2404 857 c-2 -7 -3 -71 -2 -142 3 -114 5 -130 21 -133 16 -3 17 9
17 142 0 124 -2 146 -15 146 -9 0 -18 -6 -21 -13z"/>
<path d="M3669 802 c-40 -20 -59 -53 -59 -105 0 -71 42 -117 108 -117 49 0 72
25 69 75 -2 45 -2 45 -39 45 -21 0 -38 -4 -38 -10 0 -5 9 -10 20 -10 16 0 20
-7 20 -35 0 -33 -2 -35 -33 -35 -41 0 -66 25 -73 72 -12 70 44 126 96 98 26
-14 48 1 28 18 -24 19 -65 21 -99 4z"/>
<path d="M4324 806 c-69 -30 -79 -157 -17 -205 41 -33 123 -23 123 14 0 17
-16 20 -25 5 -11 -17 -64 -11 -85 10 -30 30 -28 103 5 135 27 28 37 30 67 14
24 -13 46 2 26 19 -23 19 -62 22 -94 8z"/>
<path d="M2530 695 c0 -94 3 -115 15 -115 11 0 15 19 17 86 l3 86 50 -86 c68
-118 79 -114 83 32 3 108 2 112 -19 112 -20 0 -21 -4 -17 -85 1 -47 2 -85 1
-85 -1 0 -23 38 -50 85 -31 56 -54 85 -65 85 -16 0 -18 -12 -18 -115z"/>
<path d="M2742 798 c3 -7 19 -14 36 -16 l32 -3 1 -72 c2 -114 3 -122 19 -122
12 0 15 17 15 95 l0 95 29 5 c16 3 31 11 34 18 3 9 -18 12 -83 12 -65 0 -86
-3 -83 -12z"/>
<path d="M2964 698 l1 -113 68 -3 c55 -2 67 0 67 13 0 11 -12 15 -50 15 l-50
0 0 40 0 40 40 0 c29 0 40 4 40 15 0 11 -11 15 -40 15 -38 0 -40 2 -40 30 0
25 4 30 25 31 14 1 35 2 47 3 12 0 23 7 26 14 3 9 -15 12 -65 12 l-69 0 0
-112z"/>
<path d="M3152 698 l3 -113 64 0 c43 0 66 4 69 13 2 8 -11 12 -47 12 l-51 0 0
100 c0 94 -1 100 -21 100 -19 0 -20 -5 -17 -112z"/>
<path d="M3340 695 l0 -115 65 0 c51 0 65 3 65 15 0 11 -12 15 -50 15 l-50 0
0 100 c0 82 -3 100 -15 100 -12 0 -15 -19 -15 -115z"/>
<path d="M3520 695 c0 -96 3 -115 15 -115 12 0 15 19 15 115 0 96 -3 115 -15
115 -12 0 -15 -19 -15 -115z"/>
<path d="M3850 695 l0 -115 70 0 c56 0 70 3 70 15 0 12 -13 15 -55 15 l-55 0
0 40 0 40 45 0 c33 0 45 4 45 15 0 11 -12 15 -45 15 -43 0 -45 1 -45 29 0 33
9 38 63 35 26 -1 37 3 37 12 0 11 -16 14 -65 14 l-65 0 0 -115z"/>
<path d="M4040 695 c0 -96 3 -115 15 -115 12 0 15 17 15 93 0 82 2 89 13 67
76 -145 107 -183 119 -147 3 6 6 58 7 115 2 99 1 102 -20 102 -20 0 -21 -3
-16 -85 2 -47 3 -85 2 -85 -2 0 -25 38 -51 85 -32 56 -55 85 -66 85 -16 0 -18
-12 -18 -115z"/>
<path d="M4490 695 l0 -115 64 0 c48 0 65 4 70 15 4 12 -5 15 -49 15 l-55 0 0
40 0 40 46 0 c59 0 55 24 -4 28 -39 3 -42 5 -42 33 0 26 3 29 33 30 17 1 40 1
50 0 9 -1 17 4 17 13 0 13 -13 16 -65 16 l-65 0 0 -115z"/>
</g>
</svg>
