<svg version="1.1" id="Layer_1" xmlns="http://www.w3.org/2000/svg" xmlns:xlink="http://www.w3.org/1999/xlink" x="0px" y="0px"
	 width="100%" viewBox="0 0 512 512" enable-background="new 0 0 512 512" xml:space="preserve">
<path fill="#47704C" opacity="1.000000" stroke="none" 
	d="
M298.000000,513.000000 
	C198.690781,513.000000 99.881554,513.000000 1.036167,513.000000 
	C1.036167,342.399078 1.036167,171.798172 1.036167,1.098622 
	C171.559235,1.098622 342.118561,1.098622 512.838928,1.098622 
	C512.838928,171.666550 512.838928,342.333252 512.838928,513.000000 
	C441.464813,513.000000 369.982391,513.000000 298.000000,513.000000 
M170.068176,27.576611 
	C169.472839,27.842419 168.757889,27.976942 168.300293,28.393909 
	C162.322037,33.841385 156.467331,39.427841 150.397202,44.769871 
	C146.632507,48.082989 146.244324,53.189285 149.817093,56.860065 
	C152.926025,60.054291 156.117249,63.181763 159.041214,66.539764 
	C164.311340,72.592171 169.488678,78.730080 174.546646,84.960632 
	C177.303177,88.356171 179.734924,92.015343 182.313141,95.555618 
	C181.985596,96.002914 181.658051,96.450211 181.330490,96.897507 
	C159.111191,96.897507 136.891891,96.897507 114.672592,96.897507 
	C114.673431,97.266876 114.674263,97.636246 114.675102,98.005615 
	C137.903214,98.005615 161.131332,98.005615 184.359451,98.005615 
	C184.365311,98.336807 184.371185,98.667999 184.377045,98.999191 
	C182.585236,98.999191 180.793411,98.999062 179.001587,98.999214 
	C158.169479,99.000961 137.336853,98.930153 116.505814,99.080627 
	C113.275719,99.103966 109.579941,99.319786 106.913300,100.857681 
	C98.048729,105.970024 94.032097,114.198990 94.017258,124.335808 
	C93.973099,154.500641 94.022339,184.665634 93.948952,214.830368 
	C93.943054,217.256912 93.278503,219.681839 92.964767,221.146606 
	C92.964767,188.388397 92.964767,155.630173 92.964767,122.871964 
	C92.157417,123.353966 92.030052,123.837669 92.029861,124.321419 
	C92.017944,155.298828 92.001976,186.276276 92.054985,217.253586 
	C92.057724,218.855118 92.657890,220.455627 93.106361,222.814743 
	C93.357834,227.556625 93.862473,232.301010 93.815643,237.039948 
	C93.640915,254.723465 93.033615,272.405670 93.065353,290.087494 
	C93.100128,309.458008 93.848366,328.826843 93.923622,348.197815 
	C93.967743,359.553131 92.869209,370.918518 93.060280,382.266327 
	C93.374329,400.918121 94.444733,419.555908 94.947227,438.206329 
	C95.227486,448.608307 94.766739,459.032074 95.126991,469.429138 
	C95.270477,473.570343 95.858498,478.130859 97.760246,481.690491 
	C102.468163,490.502625 111.135559,493.841644 120.437263,493.876129 
	C184.093582,494.112213 247.751190,493.999939 311.408386,493.999939 
	C313.034760,493.999939 314.661133,493.999939 316.287506,493.999939 
	C316.286652,493.682281 316.285797,493.364594 316.284943,493.046936 
	C250.425888,493.046936 184.566833,493.046936 118.707794,493.046936 
	C118.698524,492.698151 118.689247,492.349396 118.679977,492.000610 
	C120.607780,492.000610 122.535591,492.000610 124.463394,492.000610 
	C187.120743,491.999786 249.778214,492.045959 312.435059,491.870239 
	C315.845459,491.860687 320.019348,490.918274 322.519562,488.831055 
	C331.347778,481.461151 339.671692,473.477722 348.057220,465.589172 
	C360.409485,453.968933 372.656219,442.236450 384.936523,430.539795 
	C390.828522,424.927856 396.698029,419.292236 402.570770,413.660156 
	C406.059204,410.314667 409.521088,406.941467 413.019440,403.606415 
	C415.671967,401.077698 418.363190,398.589447 421.492310,395.366150 
	C421.660889,393.385162 421.976318,391.404205 421.976868,389.423187 
	C422.001862,301.667053 421.999146,213.910904 421.999695,126.154762 
	C421.999695,124.732201 421.999664,123.309631 421.999664,121.887070 
	C421.666351,121.895897 421.333038,121.904724 420.999725,121.913551 
	C420.999725,123.901253 420.999725,125.888954 420.999725,127.876656 
	C420.999725,177.000122 420.986938,226.123581 421.003723,275.247040 
	C421.017487,315.544281 421.066376,355.841522 420.613403,395.437561 
	C420.409180,392.630432 420.027466,389.823334 420.026428,387.016144 
	C419.994843,299.861847 420.000793,212.707565 419.998474,125.553276 
	C419.998413,123.387070 420.485596,121.055260 419.853760,119.086937 
	C418.220520,113.998749 417.426025,107.392761 413.810883,104.509369 
	C409.418121,101.005760 402.491394,99.277550 396.639679,99.226746 
	C350.149780,98.823051 303.650360,98.675720 257.165833,99.317741 
	C249.378403,99.425301 244.972427,96.008362 240.687134,91.345634 
	C234.821091,84.962967 229.541748,78.038780 224.060699,71.306190 
	C222.732788,69.675095 221.729782,67.771736 220.349960,66.192245 
	C217.500519,62.930489 214.397308,59.888725 211.580170,56.600796 
	C206.341461,50.486584 201.232788,44.260952 195.785004,37.851097 
	C195.785004,37.851097 195.490692,37.632538 195.389389,37.034374 
	C191.111328,32.487747 187.016235,27.741974 182.431274,23.529364 
	C181.229507,22.425192 178.297607,22.345219 176.538834,22.931170 
	C174.501801,23.609825 172.882416,25.542023 170.851089,27.214991 
	C170.851089,27.214991 170.632507,27.509306 170.068176,27.576611 
M302.500000,98.000458 
	C334.776703,98.000458 367.053436,98.000458 399.330139,98.000458 
	C399.329315,97.750961 399.328461,97.501465 399.327637,97.251968 
	C349.442596,97.251968 299.557556,97.251968 249.672516,97.251968 
	C249.670883,97.501465 249.669266,97.750961 249.667633,98.000458 
	C266.945099,98.000458 284.222534,98.000458 302.500000,98.000458 
z"/>
<path fill="#282727" opacity="1.000000" stroke="none" 
	d="
M196.069977,38.081711 
	C201.232788,44.260952 206.341461,50.486584 211.580170,56.600796 
	C214.397308,59.888725 217.500519,62.930489 220.349960,66.192245 
	C221.729782,67.771736 222.732788,69.675095 224.060699,71.306190 
	C229.541748,78.038780 234.821091,84.962967 240.687134,91.345634 
	C244.972427,96.008362 249.378403,99.425301 257.165833,99.317741 
	C303.650360,98.675720 350.149780,98.823051 396.639679,99.226746 
	C402.491394,99.277550 409.418121,101.005760 413.810883,104.509369 
	C417.426025,107.392761 418.220520,113.998749 419.853760,119.086937 
	C420.485596,121.055260 419.998413,123.387070 419.998474,125.553276 
	C420.000793,212.707565 419.994843,299.861847 420.026428,387.016144 
	C420.027466,389.823334 420.409180,392.630432 420.841675,395.772064 
	C421.069977,396.106567 421.037170,396.083191 421.037170,396.083191 
	C418.363190,398.589447 415.671967,401.077698 413.019440,403.606415 
	C409.521088,406.941467 406.059204,410.314667 402.570770,413.660156 
	C396.698029,419.292236 390.828522,424.927856 384.936523,430.539795 
	C372.656219,442.236450 360.409485,453.968933 348.057220,465.589172 
	C339.671692,473.477722 331.347778,481.461151 322.519562,488.831055 
	C320.019348,490.918274 315.845459,491.860687 312.435059,491.870239 
	C249.778214,492.045959 187.120743,491.999786 124.463394,492.000610 
	C122.535591,492.000610 120.607780,492.000610 118.679977,492.000610 
	C118.689247,492.349396 118.698524,492.698151 118.707794,493.046936 
	C184.566833,493.046936 250.425888,493.046936 316.284943,493.046936 
	C316.285797,493.364594 316.286652,493.682281 316.287506,493.999939 
	C314.661133,493.999939 313.034760,493.999939 311.408386,493.999939 
	C247.751190,493.999939 184.093582,494.112213 120.437263,493.876129 
	C111.135559,493.841644 102.468163,490.502625 97.760246,481.690491 
	C95.858498,478.130859 95.270477,473.570343 95.126991,469.429138 
	C94.766739,459.032074 95.227486,448.608307 94.947227,438.206329 
	C94.444733,419.555908 93.374329,400.918121 93.060280,382.266327 
	C92.869209,370.918518 93.967743,359.553131 93.923622,348.197815 
	C93.848366,328.826843 93.100128,309.458008 93.065353,290.087494 
	C93.033615,272.405670 93.640915,254.723465 93.815643,237.039948 
	C93.862473,232.301010 93.357834,227.556625 93.027542,222.446075 
	C92.948715,222.077423 92.920029,222.107529 92.920029,222.107529 
	C93.278503,219.681839 93.943054,217.256912 93.948952,214.830368 
	C94.022339,184.665634 93.973099,154.500641 94.017258,124.335808 
	C94.032097,114.198990 98.048729,105.970024 106.913300,100.857681 
	C109.579941,99.319786 113.275719,99.103966 116.505814,99.080627 
	C137.336853,98.930153 158.169479,99.000961 179.001587,98.999214 
	C180.793411,98.999062 182.585236,98.999191 184.377045,98.999191 
	C184.371185,98.667999 184.365311,98.336807 184.359451,98.005615 
	C161.131332,98.005615 137.903214,98.005615 114.675102,98.005615 
	C114.674263,97.636246 114.673431,97.266876 114.672592,96.897507 
	C136.891891,96.897507 159.111191,96.897507 181.330490,96.897507 
	C181.658051,96.450211 181.985596,96.002914 182.313141,95.555618 
	C179.734924,92.015343 177.303177,88.356171 174.546646,84.960632 
	C169.488678,78.730080 164.311340,72.592171 159.041214,66.539764 
	C156.117249,63.181763 152.926025,60.054291 149.817093,56.860065 
	C146.244324,53.189285 146.632507,48.082989 150.397202,44.769871 
	C156.467331,39.427841 162.322037,33.841385 168.300293,28.393909 
	C168.757889,27.976942 169.472839,27.842419 170.461853,27.593365 
	C170.855515,27.610117 171.246368,27.374687 171.246368,27.374687 
	C171.246368,27.374687 171.081711,26.930025 171.081711,26.930027 
	C172.882416,25.542023 174.501801,23.609825 176.538834,22.931170 
	C178.297607,22.345219 181.229507,22.425192 182.431274,23.529364 
	C187.016235,27.741974 191.111328,32.487747 195.389648,37.444954 
	C195.389893,37.855537 195.625336,38.246368 195.625336,38.246368 
	C195.625336,38.246368 196.069977,38.081711 196.069977,38.081711 
M243.089142,161.420563 
	C238.140610,158.334564 233.698166,154.907959 230.136780,150.001846 
	C226.304855,144.723053 221.411270,140.160263 216.638992,135.646561 
	C214.815186,133.921600 212.054016,132.196152 209.703018,132.172638 
	C184.708206,131.922791 159.709641,132.081314 134.712997,131.952667 
	C130.299133,131.929962 128.867889,133.707581 128.955551,137.920258 
	C129.139267,146.748749 129.002579,155.583832 129.002502,164.416214 
	C129.001541,260.072662 128.999084,355.729095 129.006165,451.385559 
	C129.006699,458.629547 129.216141,458.969727 134.945084,458.972748 
	C188.939270,459.001129 242.933533,458.955292 296.927582,459.045532 
	C301.467377,459.053101 303.104279,457.389160 303.042877,452.865845 
	C302.839447,437.880463 302.746582,422.888092 303.009796,407.905426 
	C303.080261,403.893372 303.498535,399.185303 305.610901,396.042786 
	C311.971191,386.580719 321.712830,382.996399 332.901917,383.000732 
	C347.400360,383.006317 361.898804,383.006531 376.397247,382.997620 
	C384.978241,382.992340 384.994293,382.982422 384.994751,374.489899 
	C384.998993,296.498230 384.997345,218.506577 384.996246,140.514908 
	C384.996216,139.348419 384.916656,138.178116 384.985046,137.016129 
	C385.199860,133.368088 383.452545,131.987015 379.883179,131.992691 
	C346.053650,132.046600 312.223907,131.996216 278.394409,132.053177 
	C273.165222,132.061981 272.391235,133.193069 274.551819,138.085861 
	C281.793427,154.484848 289.245178,170.790909 296.540527,187.166397 
	C297.679291,189.722473 298.422211,192.454895 299.503326,195.549911 
	C291.395111,195.898880 288.235901,189.688538 283.220306,186.866348 
	C283.220306,186.866348 283.093658,186.425674 283.093658,186.425674 
	C283.093658,186.425674 282.625214,186.493195 282.119141,186.420288 
	C281.441040,185.969986 280.762909,185.519684 280.220917,184.866486 
	C280.220917,184.866486 280.093872,184.425598 280.093872,184.425598 
	C280.093872,184.425598 279.625061,184.493073 279.118347,184.421646 
	C278.440247,183.970703 277.762146,183.519775 277.220276,182.866364 
	C277.220276,182.866364 277.093719,182.425751 277.093719,182.425751 
	C277.093719,182.425751 276.625305,182.493225 276.089539,182.419052 
	C271.698883,179.797256 267.238312,177.284622 262.934082,174.527908 
	C256.592255,170.466171 250.361862,166.230469 244.220200,161.866333 
	C244.220200,161.866333 244.093536,161.425751 244.093536,161.425751 
	C244.093536,161.425751 243.625168,161.493301 243.089142,161.420563 
z"/>
<path fill="#282727" opacity="1.000000" stroke="none" 
	d="
M421.084839,396.122681 
	C421.066376,355.841522 421.017487,315.544281 421.003723,275.247040 
	C420.986938,226.123581 420.999725,177.000122 420.999725,127.876656 
	C420.999725,125.888954 420.999725,123.901253 420.999725,121.913551 
	C421.333038,121.904724 421.666351,121.895897 421.999664,121.887070 
	C421.999664,123.309631 421.999695,124.732201 421.999695,126.154762 
	C421.999146,213.910904 422.001862,301.667053 421.976868,389.423187 
	C421.976318,391.404205 421.660889,393.385162 421.264740,395.724670 
	C421.037170,396.083191 421.069977,396.106567 421.084839,396.122681 
z"/>
<path fill="#282727" opacity="1.000000" stroke="none" 
	d="
M302.000000,98.000458 
	C284.222534,98.000458 266.945099,98.000458 249.667633,98.000458 
	C249.669266,97.750961 249.670883,97.501465 249.672516,97.251968 
	C299.557556,97.251968 349.442596,97.251968 399.327637,97.251968 
	C399.328461,97.501465 399.329315,97.750961 399.330139,98.000458 
	C367.053436,98.000458 334.776703,98.000458 302.000000,98.000458 
z"/>
<path fill="#282727" opacity="1.000000" stroke="none" 
	d="
M92.964310,222.067017 
	C92.657890,220.455627 92.057724,218.855118 92.054985,217.253586 
	C92.001976,186.276276 92.017944,155.298828 92.029861,124.321419 
	C92.030052,123.837669 92.157417,123.353966 92.964767,122.871964 
	C92.964767,155.630173 92.964767,188.388397 92.942398,221.627075 
	C92.920029,222.107529 92.948715,222.077423 92.964310,222.067017 
z"/>
<path fill="#47704C" opacity="1.000000" stroke="none" 
	d="
M277.084045,183.068848 
	C277.762146,183.519775 278.440247,183.970703 279.483643,184.603821 
	C279.848938,184.785995 280.084808,185.069382 280.084808,185.069382 
	C280.762909,185.519684 281.441040,185.969986 282.483917,186.603058 
	C282.848694,186.785843 283.084137,187.068939 283.084137,187.068939 
	C288.235901,189.688538 291.395111,195.898880 299.503326,195.549911 
	C298.422211,192.454895 297.679291,189.722473 296.540527,187.166397 
	C289.245178,170.790909 281.793427,154.484848 274.551819,138.085861 
	C272.391235,133.193069 273.165222,132.061981 278.394409,132.053177 
	C312.223907,131.996216 346.053650,132.046600 379.883179,131.992691 
	C383.452545,131.987015 385.199860,133.368088 384.985046,137.016129 
	C384.916656,138.178116 384.996216,139.348419 384.996246,140.514908 
	C384.997345,218.506577 384.998993,296.498230 384.994751,374.489899 
	C384.994293,382.982422 384.978241,382.992340 376.397247,382.997620 
	C361.898804,383.006531 347.400360,383.006317 332.901917,383.000732 
	C321.712830,382.996399 311.971191,386.580719 305.610901,396.042786 
	C303.498535,399.185303 303.080261,403.893372 303.009796,407.905426 
	C302.746582,422.888092 302.839447,437.880463 303.042877,452.865845 
	C303.104279,457.389160 301.467377,459.053101 296.927582,459.045532 
	C242.933533,458.955292 188.939270,459.001129 134.945084,458.972748 
	C129.216141,458.969727 129.006699,458.629547 129.006165,451.385559 
	C128.999084,355.729095 129.001541,260.072662 129.002502,164.416214 
	C129.002579,155.583832 129.139267,146.748749 128.955551,137.920258 
	C128.867889,133.707581 130.299133,131.929962 134.712997,131.952667 
	C159.709641,132.081314 184.708206,131.922791 209.703018,132.172638 
	C212.054016,132.196152 214.815186,133.921600 216.638992,135.646561 
	C221.411270,140.160263 226.304855,144.723053 230.136780,150.001846 
	C233.698166,154.907959 238.140610,158.334564 243.468872,161.603195 
	C243.848618,161.785828 244.084015,162.068848 244.084015,162.068848 
	C250.361862,166.230469 256.592255,170.466171 262.934082,174.527908 
	C267.238312,177.284622 271.698883,179.797256 276.469116,182.602417 
	C276.848724,182.785797 277.084045,183.068848 277.084045,183.068848 
M299.866791,295.777679 
	C299.866791,295.777679 299.424744,295.904724 299.424744,295.904724 
	C299.424744,295.904724 299.491669,296.374573 299.592896,297.074951 
	C299.391113,298.205444 299.443634,299.470856 298.931274,300.436615 
	C298.035248,302.125671 296.792175,303.630646 295.694519,305.212738 
	C294.592041,303.720154 293.062836,302.383270 292.452850,300.711060 
	C286.128632,283.373932 279.999786,265.965515 273.659515,248.634384 
	C273.048553,246.964233 271.474609,244.522141 270.187042,244.417603 
	C264.496277,243.955658 258.746765,244.217819 251.972153,244.217819 
	C253.861450,250.167252 255.286728,255.075256 256.989075,259.885193 
	C258.381409,263.819183 260.148895,267.618958 261.652893,271.515747 
	C262.099396,272.672668 261.986267,274.072449 262.532013,275.158752 
	C263.766815,277.616669 265.559723,279.824677 266.579956,282.354370 
	C270.048706,290.955231 273.258942,299.660004 276.610352,308.308655 
	C279.072510,314.662415 281.800385,320.920715 284.048309,327.348053 
	C286.695251,334.916260 286.526031,334.977814 294.423950,334.997742 
	C297.412537,335.005280 300.401154,334.998962 303.864258,334.998962 
	C315.484528,305.227997 327.167023,275.297729 339.374390,244.022705 
	C333.288483,244.022705 328.696625,244.163605 324.118408,243.974579 
	C320.917816,243.842407 319.244965,245.280396 318.209229,248.134460 
	C313.124115,262.146729 307.988464,276.140839 302.808716,290.118408 
	C302.069061,292.114380 300.991638,293.985168 299.866791,295.777679 
M200.787231,311.851929 
	C200.787231,311.851929 200.494873,311.633179 200.470520,311.155151 
	C199.131317,309.056610 197.165741,307.124817 196.555420,304.832245 
	C192.826767,290.826233 191.469666,277.398285 203.188019,265.600922 
	C209.033722,259.715790 223.775742,257.676727 229.214233,263.992096 
	C232.863281,268.229492 235.591766,273.259674 238.857437,278.121674 
	C242.483932,277.204437 247.075287,275.990875 251.694351,274.893982 
	C254.581787,274.208282 255.643127,272.423584 254.713531,269.746826 
	C251.278442,259.855438 247.173645,250.841034 236.022568,246.754791 
	C228.796494,244.106842 221.641510,242.054367 214.161438,243.198593 
	C207.171204,244.267899 200.352661,245.442429 193.697296,249.294724 
	C183.217804,255.360550 178.971451,265.104370 176.247086,275.216248 
	C173.368286,285.901276 174.186081,297.248352 177.867172,308.055878 
	C179.162079,311.857697 179.364075,316.392029 181.625107,319.431366 
	C186.708893,326.265015 192.724899,332.519470 201.704819,334.246033 
	C213.359100,336.486786 224.642349,340.409821 236.558853,333.007355 
	C244.694443,327.953613 250.554733,321.864990 253.625916,313.280518 
	C258.001099,301.051025 258.906494,302.776520 246.817932,299.773865 
	C245.366318,299.413330 243.879471,299.153046 242.472366,298.663910 
	C239.858170,297.755219 238.540192,298.545563 237.712296,301.258850 
	C236.804001,304.235626 235.311462,307.034149 233.867722,309.774261 
	C233.741684,309.973816 233.615631,310.173401 233.393066,310.826508 
	C230.464752,314.220184 226.954590,316.224884 222.504639,317.606232 
	C213.352493,320.447296 206.891617,319.224731 200.787231,311.851929 
M130.999557,300.500000 
	C130.999557,278.890015 130.999557,257.280029 130.999557,235.670059 
	C130.750290,235.671310 130.501007,235.672546 130.251740,235.673798 
	C130.251740,288.891327 130.251740,342.108826 130.251740,395.326355 
	C130.501007,395.327209 130.750290,395.328064 130.999557,395.328918 
	C130.999557,364.052612 130.999557,332.776306 130.999557,300.500000 
M365.497864,381.999695 
	C370.778046,381.999695 376.058228,381.999695 381.338440,381.999695 
	C381.333740,381.750671 381.329071,381.501648 381.324371,381.252625 
	C364.108063,381.252625 346.891785,381.252625 329.675476,381.252625 
	C329.673248,381.501648 329.671021,381.750671 329.668793,381.999695 
	C341.278778,381.999695 352.888794,381.999695 365.497864,381.999695 
M301.000549,418.759644 
	C301.000549,424.931549 301.000549,431.103455 301.000549,437.275360 
	C301.333588,437.275299 301.666656,437.275208 301.999695,437.275146 
	C301.999695,433.184906 301.999725,429.094696 301.999725,425.004486 
	C301.999725,420.969238 301.999695,416.933990 301.999695,412.898743 
	C301.154205,413.265747 301.054626,413.586426 301.047089,413.909241 
	C301.016357,415.228760 301.013763,416.548950 301.000549,418.759644 
z"/>
<path fill="#47704C" opacity="1.000000" stroke="none" 
	d="
M282.736938,186.639526 
	C282.625214,186.493195 283.093658,186.425674 283.093658,186.425674 
	C283.093658,186.425674 283.220306,186.866348 283.152222,186.967651 
	C283.084137,187.068939 282.848694,186.785843 282.736938,186.639526 
z"/>
<path fill="#47704C" opacity="1.000000" stroke="none" 
	d="
M279.737000,184.639526 
	C279.625061,184.493073 280.093872,184.425598 280.093872,184.425598 
	C280.093872,184.425598 280.220917,184.866486 280.152863,184.967926 
	C280.084808,185.069382 279.848938,184.785995 279.737000,184.639526 
z"/>
<path fill="#47704C" opacity="1.000000" stroke="none" 
	d="
M276.737000,182.639511 
	C276.625305,182.493225 277.093719,182.425751 277.093719,182.425751 
	C277.093719,182.425751 277.220276,182.866364 277.152161,182.967606 
	C277.084045,183.068848 276.848724,182.785797 276.737000,182.639511 
z"/>
<path fill="#47704C" opacity="1.000000" stroke="none" 
	d="
M243.736893,161.639557 
	C243.625168,161.493301 244.093536,161.425751 244.093536,161.425751 
	C244.093536,161.425751 244.220200,161.866333 244.152100,161.967590 
	C244.084015,162.068848 243.848618,161.785828 243.736893,161.639557 
z"/>
<path fill="#47704C" opacity="1.000000" stroke="none" 
	d="
M195.927490,37.966404 
	C196.069977,38.081711 195.625336,38.246368 195.625336,38.246368 
	C195.625336,38.246368 195.389893,37.855537 195.440292,37.744038 
	C195.490692,37.632538 195.785004,37.851097 195.927490,37.966404 
z"/>
<path fill="#47704C" opacity="1.000000" stroke="none" 
	d="
M170.966400,27.072508 
	C171.081711,26.930025 171.246368,27.374687 171.246368,27.374687 
	C171.246368,27.374687 170.855515,27.610117 170.744019,27.559711 
	C170.632507,27.509306 170.851089,27.214991 170.966400,27.072508 
z"/>
<path fill="#282727" opacity="1.000000" stroke="none" 
	d="
M234.073517,309.910370 
	C235.311462,307.034149 236.804001,304.235626 237.712296,301.258850 
	C238.540192,298.545563 239.858170,297.755219 242.472366,298.663910 
	C243.879471,299.153046 245.366318,299.413330 246.817932,299.773865 
	C258.906494,302.776520 258.001099,301.051025 253.625916,313.280518 
	C250.554733,321.864990 244.694443,327.953613 236.558853,333.007355 
	C224.642349,340.409821 213.359100,336.486786 201.704819,334.246033 
	C192.724899,332.519470 186.708893,326.265015 181.625107,319.431366 
	C179.364075,316.392029 179.162079,311.857697 177.867172,308.055878 
	C174.186081,297.248352 173.368286,285.901276 176.247086,275.216248 
	C178.971451,265.104370 183.217804,255.360550 193.697296,249.294724 
	C200.352661,245.442429 207.171204,244.267899 214.161438,243.198593 
	C221.641510,242.054367 228.796494,244.106842 236.022568,246.754791 
	C247.173645,250.841034 251.278442,259.855438 254.713531,269.746826 
	C255.643127,272.423584 254.581787,274.208282 251.694351,274.893982 
	C247.075287,275.990875 242.483932,277.204437 238.857437,278.121674 
	C235.591766,273.259674 232.863281,268.229492 229.214233,263.992096 
	C223.775742,257.676727 209.033722,259.715790 203.188019,265.600922 
	C191.469666,277.398285 192.826767,290.826233 196.555420,304.832245 
	C197.165741,307.124817 199.131317,309.056610 200.432114,311.505127 
	C200.393707,311.855072 200.627472,312.243683 200.627472,312.243683 
	C200.627472,312.243683 201.070480,312.082336 201.070480,312.082336 
	C206.891617,319.224731 213.352493,320.447296 222.504639,317.606232 
	C226.954590,316.224884 230.464752,314.220184 233.589767,310.487183 
	C233.786469,310.147858 234.073517,309.910370 234.073517,309.910370 
z"/>
<path fill="#282727" opacity="1.000000" stroke="none" 
	d="
M300.070526,295.913910 
	C300.991638,293.985168 302.069061,292.114380 302.808716,290.118408 
	C307.988464,276.140839 313.124115,262.146729 318.209229,248.134460 
	C319.244965,245.280396 320.917816,243.842407 324.118408,243.974579 
	C328.696625,244.163605 333.288483,244.022705 339.374390,244.022705 
	C327.167023,275.297729 315.484528,305.227997 303.864258,334.998962 
	C300.401154,334.998962 297.412537,335.005280 294.423950,334.997742 
	C286.526031,334.977814 286.695251,334.916260 284.048309,327.348053 
	C281.800385,320.920715 279.072510,314.662415 276.610352,308.308655 
	C273.258942,299.660004 270.048706,290.955231 266.579956,282.354370 
	C265.559723,279.824677 263.766815,277.616669 262.532013,275.158752 
	C261.986267,274.072449 262.099396,272.672668 261.652893,271.515747 
	C260.148895,267.618958 258.381409,263.819183 256.989075,259.885193 
	C255.286728,255.075256 253.861450,250.167252 251.972153,244.217819 
	C258.746765,244.217819 264.496277,243.955658 270.187042,244.417603 
	C271.474609,244.522141 273.048553,246.964233 273.659515,248.634384 
	C279.999786,265.965515 286.128632,283.373932 292.452850,300.711060 
	C293.062836,302.383270 294.592041,303.720154 295.694519,305.212738 
	C296.792175,303.630646 298.035248,302.125671 298.931274,300.436615 
	C299.443634,299.470856 299.391113,298.205444 299.689392,296.612610 
	C299.785919,296.150269 300.070526,295.913910 300.070526,295.913910 
z"/>
<path fill="#282727" opacity="1.000000" stroke="none" 
	d="
M130.999557,301.000000 
	C130.999557,332.776306 130.999557,364.052612 130.999557,395.328918 
	C130.750290,395.328064 130.501007,395.327209 130.251740,395.326355 
	C130.251740,342.108826 130.251740,288.891327 130.251740,235.673798 
	C130.501007,235.672546 130.750290,235.671310 130.999557,235.670059 
	C130.999557,257.280029 130.999557,278.890015 130.999557,301.000000 
z"/>
<path fill="#282727" opacity="1.000000" stroke="none" 
	d="
M364.998322,381.999695 
	C352.888794,381.999695 341.278778,381.999695 329.668793,381.999695 
	C329.671021,381.750671 329.673248,381.501648 329.675476,381.252625 
	C346.891785,381.252625 364.108063,381.252625 381.324371,381.252625 
	C381.329071,381.501648 381.333740,381.750671 381.338440,381.999695 
	C376.058228,381.999695 370.778046,381.999695 364.998322,381.999695 
z"/>
<path fill="#282727" opacity="1.000000" stroke="none" 
	d="
M301.000671,418.314270 
	C301.013763,416.548950 301.016357,415.228760 301.047089,413.909241 
	C301.054626,413.586426 301.154205,413.265747 301.999695,412.898743 
	C301.999695,416.933990 301.999725,420.969238 301.999725,425.004486 
	C301.999725,429.094696 301.999695,433.184906 301.999695,437.275146 
	C301.666656,437.275208 301.333588,437.275299 301.000549,437.275360 
	C301.000549,431.103455 301.000549,424.931549 301.000671,418.314270 
z"/>
<path fill="#282727" opacity="1.000000" stroke="none" 
	d="
M233.638031,310.260406 
	C233.615631,310.173401 233.741684,309.973816 233.970612,309.842316 
	C234.073517,309.910370 233.786469,310.147858 233.638031,310.260406 
z"/>
<path fill="#282727" opacity="1.000000" stroke="none" 
	d="
M299.638794,296.262421 
	C299.491669,296.374573 299.424744,295.904724 299.424744,295.904724 
	C299.424744,295.904724 299.866791,295.777679 299.968658,295.845795 
	C300.070526,295.913910 299.785919,296.150269 299.638794,296.262421 
z"/>
<path fill="#47704C" opacity="1.000000" stroke="none" 
	d="
M200.928864,311.967133 
	C201.070480,312.082336 200.627472,312.243683 200.627472,312.243683 
	C200.627472,312.243683 200.393707,311.855072 200.444290,311.744141 
	C200.494873,311.633179 200.787231,311.851929 200.928864,311.967133 
z"/>
</svg>