<svg version="1.1" id="Layer_1" xmlns="http://www.w3.org/2000/svg" xmlns:xlink="http://www.w3.org/1999/xlink" x="0px" y="0px"
	 width="100%" viewBox="0 0 2983 3260" enable-background="new 0 0 2983 3260" xml:space="preserve">
<path fill="#000000" opacity="1.000000" stroke="none" 
	d="
M2.000000,1256.000000 
	C2.000000,837.333435 2.000000,419.666809 2.000000,2.000168 
	C996.666443,2.000112 1991.332886,2.000112 2985.999512,2.000056 
	C2985.999512,1088.666260 2985.999512,2175.332520 2985.999756,3261.999023 
	C1991.333984,3261.999512 996.667908,3261.999512 2.000937,3261.999756 
	C2.000000,2593.666748 2.000000,1925.333374 2.000000,1256.000000 
M1601.000366,1984.437988 
	C1560.418823,1984.437988 1519.837158,1984.437988 1478.540771,1984.437988 
	C1478.540771,1950.578125 1478.540771,1917.482788 1478.540771,1883.747681 
	C1483.006470,1883.747681 1486.959473,1883.745728 1490.912476,1883.748169 
	C1684.240601,1883.866943 1877.568970,1883.904785 2070.896973,1884.147339 
	C2142.548096,1884.237183 2214.202393,1883.439575 2285.837891,1886.472046 
	C2366.198975,1889.873657 2446.437500,1887.971802 2526.371338,1878.165894 
	C2575.740967,1872.109619 2624.226562,1862.118652 2671.346680,1845.902588 
	C2779.354492,1808.732666 2856.807373,1738.553101 2902.146729,1633.276978 
	C2930.062012,1568.458252 2945.095947,1500.377686 2953.833252,1430.764526 
	C2957.896729,1398.391357 2961.247070,1365.847778 2962.940186,1333.278442 
	C2965.101807,1291.699829 2966.437744,1250.003662 2965.964600,1208.382812 
	C2965.449219,1163.045044 2959.563232,1118.034546 2951.853027,1073.342041 
	C2941.575684,1013.768677 2925.994385,955.689758 2901.978516,900.062805 
	C2876.641846,841.376831 2843.288086,787.970520 2797.373291,743.030823 
	C2758.494141,704.977722 2714.133789,675.561401 2661.779785,659.312866 
	C2654.220947,656.966919 2646.231934,654.829102 2638.406494,654.697021 
	C2530.761719,652.878784 2423.110840,651.424561 2315.460938,649.921143 
	C2312.944092,649.886047 2310.420898,650.318848 2307.667480,650.553162 
	C2307.667480,654.356812 2307.657227,657.348938 2307.669189,660.341003 
	C2307.984131,739.338318 2307.922119,818.339844 2308.794189,897.330994 
	C2309.171875,931.560303 2305.370850,965.144470 2297.907959,998.397827 
	C2274.395752,1103.164185 2216.074951,1182.021118 2122.000244,1234.194336 
	C2071.750732,1262.062500 2017.785278,1279.624268 1961.952637,1291.989624 
	C1892.447388,1307.382812 1821.865234,1314.202271 1750.923950,1317.599731 
	C1680.312744,1320.981323 1609.640503,1320.767334 1538.983032,1319.204224 
	C1427.646851,1316.741089 1316.361450,1317.182373 1205.139404,1323.532837 
	C1144.556763,1326.991943 1084.235474,1332.631836 1024.588013,1344.136475 
	C987.572449,1351.276001 951.358337,1361.147217 916.598511,1376.054688 
	C849.496582,1404.832520 805.743103,1453.837891 786.691162,1524.623535 
	C777.120728,1560.181519 772.082031,1596.460815 770.414490,1633.102173 
	C768.763672,1669.376221 767.689270,1705.738037 768.188538,1742.036255 
	C769.394104,1829.684937 771.958618,1917.314087 773.403564,2004.960693 
	C774.359985,2062.979004 776.628235,2120.880127 784.120728,2178.466309 
	C789.544495,2220.152100 797.911560,2261.179199 811.994568,2300.928223 
	C837.018738,2371.557861 881.286560,2425.478516 948.774597,2459.428467 
	C970.246155,2470.229492 992.556702,2478.903076 1015.491455,2486.013916 
	C1069.487793,2502.755371 1125.053589,2511.449219 1181.045044,2517.577393 
	C1245.009766,2524.578369 1309.241455,2528.070557 1373.544067,2529.774170 
	C1427.850952,2531.212646 1482.179443,2532.330078 1536.502563,2532.550537 
	C1621.821289,2532.896973 1707.151367,2533.003906 1792.461060,2531.956299 
	C1837.929932,2531.398438 1882.590332,2523.402832 1926.095337,2509.900635 
	C2010.988770,2483.552734 2079.149170,2434.674316 2127.333252,2359.281738 
	C2161.005127,2306.596191 2180.653320,2248.579834 2192.013916,2187.455322 
	C2202.486816,2131.105957 2204.490967,2074.280518 2201.632568,2017.194580 
	C2201.085449,2006.268555 2199.707520,1995.384155 2198.706055,1984.405640 
	C1999.559570,1984.405640 1801.279907,1984.405640 1601.000366,1984.437988 
M73.664276,956.658630 
	C54.716232,1010.266418 43.693771,1065.680298 36.099873,1121.866089 
	C29.672125,1169.423462 26.576200,1217.271606 24.470009,1265.168579 
	C21.520967,1332.232666 24.955826,1398.956909 35.647007,1465.326538 
	C45.262924,1525.021118 59.440224,1583.422974 82.097694,1639.587036 
	C110.646568,1710.354614 150.023148,1773.844360 207.688156,1824.867798 
	C242.773468,1855.912354 281.982758,1879.982178 326.823608,1894.365601 
	C337.672913,1897.845459 348.645172,1899.723633 360.148987,1899.798584 
	C397.468353,1900.041748 434.783234,1900.897827 472.101379,1901.409424 
	C539.415771,1902.332397 606.731018,1903.186646 674.046631,1904.016235 
	C676.577271,1904.047485 679.114807,1903.523193 682.256836,1903.194092 
	C682.256836,1898.551147 682.267334,1894.590820 682.255249,1890.630493 
	C682.016052,1811.965942 682.167908,1733.297363 681.357422,1654.638672 
	C680.983948,1618.383057 685.404785,1582.908081 693.928406,1547.828247 
	C716.091431,1456.614258 765.635010,1384.660156 844.848145,1333.606323 
	C889.244324,1304.992432 937.734009,1285.953369 988.369873,1271.822388 
	C1043.058594,1256.560181 1098.914307,1247.788940 1155.292236,1242.322510 
	C1213.003906,1236.726807 1270.902710,1233.903442 1328.895020,1234.058594 
	C1375.544922,1234.183350 1422.192261,1235.058594 1468.841675,1235.507690 
	C1560.151489,1236.386597 1651.446533,1236.743286 1742.712891,1232.500977 
	C1788.964844,1230.351074 1835.120117,1227.468018 1881.153320,1222.382935 
	C1915.922485,1218.542114 1950.473267,1213.467896 1984.598145,1205.820923 
	C2022.392822,1197.351562 2059.347168,1186.280640 2093.760254,1167.985352 
	C2127.657471,1149.964722 2156.005127,1125.861450 2176.205566,1092.795776 
	C2190.416992,1069.533447 2199.613525,1044.293579 2206.114014,1017.956848 
	C2217.519287,971.747559 2220.696777,924.542908 2221.498535,877.265991 
	C2222.272705,831.637695 2221.073242,785.971436 2220.454102,740.325684 
	C2220.074463,712.341370 2219.087646,684.365784 2218.495850,656.383667 
	C2217.714111,619.403442 2217.133301,582.418884 2216.307617,545.439697 
	C2215.817139,523.461426 2215.037109,501.489532 2214.362061,479.515503 
	C2213.031738,436.201904 2208.948975,393.149658 2202.118896,350.355316 
	C2196.226807,313.436218 2187.546875,277.252747 2173.914062,242.355621 
	C2151.783936,185.707199 2116.536865,139.749237 2064.317383,107.550346 
	C2034.316772,89.051910 2001.971558,76.007797 1968.306641,66.020142 
	C1916.091431,50.529068 1862.542725,41.860165 1808.522461,36.399555 
	C1766.471802,32.148899 1724.274170,29.094677 1682.075928,26.638718 
	C1644.505127,24.452078 1606.853271,23.374344 1569.220825,22.603085 
	C1516.911133,21.531021 1464.587646,21.058601 1412.267700,20.603603 
	C1375.604248,20.284763 1338.936157,20.278082 1302.271118,20.395668 
	C1257.971924,20.537735 1213.658691,19.601254 1169.432129,23.700874 
	C1124.768677,27.840990 1081.193604,36.647423 1039.203247,52.537773 
	C948.612244,86.820045 882.522461,148.027939 840.090515,234.888748 
	C807.719788,301.153656 792.908142,371.937378 788.556580,444.970215 
	C786.716431,475.852600 788.002014,506.940216 788.414001,537.927246 
	C788.553711,548.438416 790.373840,558.927307 791.495056,570.114075 
	C814.225708,570.114075 835.841370,570.122375 857.457031,570.111816 
	C879.456543,570.101074 901.455994,570.068848 923.455505,570.051636 
	C945.121704,570.034668 966.787842,570.029419 988.454041,570.010315 
	C1010.120178,569.991272 1031.786377,569.958435 1053.452515,569.937256 
	C1075.452026,569.915710 1097.451416,569.901550 1119.450928,569.882935 
	C1141.117065,569.864563 1162.783325,569.846558 1184.449463,569.824829 
	C1206.448975,569.802734 1228.448364,569.770081 1250.447876,569.753357 
	C1272.114014,569.736938 1293.780273,569.742432 1315.446411,569.724182 
	C1337.112549,569.705933 1358.778687,569.671936 1380.444824,569.641724 
	C1402.444214,569.611084 1424.444702,569.436890 1446.442871,569.583557 
	C1467.943848,569.726929 1489.475464,568.842834 1510.776733,570.027039 
	C1512.736328,584.010132 1512.501953,662.297974 1510.435425,670.198425 
	C1507.687622,670.198425 1504.738281,670.199951 1501.788940,670.198242 
	C1364.792114,670.116577 1227.793335,670.451233 1090.798828,669.835571 
	C953.510376,669.218628 816.198975,672.261292 678.930176,666.593689 
	C643.362000,665.125122 607.646057,666.959595 572.004272,667.618774 
	C526.335266,668.463501 480.959442,672.772461 435.819855,679.768677 
	C381.631165,688.167419 328.838135,701.434204 278.694641,724.111145 
	C215.910339,752.504761 164.261658,794.257751 125.549011,851.606018 
	C103.783913,883.848511 87.394096,918.724060 73.664276,956.658630 
z"/>
<path fill="#FFDA4D" opacity="1.000000" stroke="none" 
	d="
M1602.000244,1984.421875 
	C1801.279907,1984.405640 1999.559570,1984.405640 2198.706055,1984.405640 
	C2199.707520,1995.384155 2201.085449,2006.268555 2201.632568,2017.194580 
	C2204.490967,2074.280518 2202.486816,2131.105957 2192.013916,2187.455322 
	C2180.653320,2248.579834 2161.005127,2306.596191 2127.333252,2359.281738 
	C2079.149170,2434.674316 2010.988770,2483.552734 1926.095337,2509.900635 
	C1882.590332,2523.402832 1837.929932,2531.398438 1792.461060,2531.956299 
	C1707.151367,2533.003906 1621.821289,2532.896973 1536.502563,2532.550537 
	C1482.179443,2532.330078 1427.850952,2531.212646 1373.544067,2529.774170 
	C1309.241455,2528.070557 1245.009766,2524.578369 1181.045044,2517.577393 
	C1125.053589,2511.449219 1069.487793,2502.755371 1015.491455,2486.013916 
	C992.556702,2478.903076 970.246155,2470.229492 948.774597,2459.428467 
	C881.286560,2425.478516 837.018738,2371.557861 811.994568,2300.928223 
	C797.911560,2261.179199 789.544495,2220.152100 784.120728,2178.466309 
	C776.628235,2120.880127 774.359985,2062.979004 773.403564,2004.960693 
	C771.958618,1917.314087 769.394104,1829.684937 768.188538,1742.036255 
	C767.689270,1705.738037 768.763672,1669.376221 770.414490,1633.102173 
	C772.082031,1596.460815 777.120728,1560.181519 786.691162,1524.623535 
	C805.743103,1453.837891 849.496582,1404.832520 916.598511,1376.054688 
	C951.358337,1361.147217 987.572449,1351.276001 1024.588013,1344.136475 
	C1084.235474,1332.631836 1144.556763,1326.991943 1205.139404,1323.532837 
	C1316.361450,1317.182373 1427.646851,1316.741089 1538.983032,1319.204224 
	C1609.640503,1320.767334 1680.312744,1320.981323 1750.923950,1317.599731 
	C1821.865234,1314.202271 1892.447388,1307.382812 1961.952637,1291.989624 
	C2017.785278,1279.624268 2071.750732,1262.062500 2122.000244,1234.194336 
	C2216.074951,1182.021118 2274.395752,1103.164185 2297.907959,998.397827 
	C2305.370850,965.144470 2309.171875,931.560303 2308.794189,897.330994 
	C2307.922119,818.339844 2307.984131,739.338318 2307.669189,660.341003 
	C2307.657227,657.348938 2307.667480,654.356812 2307.667480,650.553162 
	C2310.420898,650.318848 2312.944092,649.886047 2315.460938,649.921143 
	C2423.110840,651.424561 2530.761719,652.878784 2638.406494,654.697021 
	C2646.231934,654.829102 2654.220947,656.966919 2661.779785,659.312866 
	C2714.133789,675.561401 2758.494141,704.977722 2797.373291,743.030823 
	C2843.288086,787.970520 2876.641846,841.376831 2901.978516,900.062805 
	C2925.994385,955.689758 2941.575684,1013.768677 2951.853027,1073.342041 
	C2959.563232,1118.034546 2965.449219,1163.045044 2965.964600,1208.382812 
	C2966.437744,1250.003662 2965.101807,1291.699829 2962.940186,1333.278442 
	C2961.247070,1365.847778 2957.896729,1398.391357 2953.833252,1430.764526 
	C2945.095947,1500.377686 2930.062012,1568.458252 2902.146729,1633.276978 
	C2856.807373,1738.553101 2779.354492,1808.732666 2671.346680,1845.902588 
	C2624.226562,1862.118652 2575.740967,1872.109619 2526.371338,1878.165894 
	C2446.437500,1887.971802 2366.198975,1889.873657 2285.837891,1886.472046 
	C2214.202393,1883.439575 2142.548096,1884.237183 2070.896973,1884.147339 
	C1877.568970,1883.904785 1684.240601,1883.866943 1490.912476,1883.748169 
	C1486.959473,1883.745728 1483.006470,1883.747681 1478.540771,1883.747681 
	C1478.540771,1917.482788 1478.540771,1950.578125 1478.540771,1984.437988 
	C1519.837158,1984.437988 1560.418823,1984.437988 1602.000244,1984.421875 
M1806.015869,2160.965820 
	C1785.308960,2202.240479 1781.054077,2245.571533 1790.835083,2290.301514 
	C1797.211548,2319.461914 1809.869019,2345.660156 1831.412476,2366.933838 
	C1869.749878,2404.791260 1923.221924,2405.072754 1961.939331,2367.703125 
	C1974.819946,2355.270752 1984.841431,2340.766357 1991.855103,2324.387207 
	C2013.518433,2273.796143 2013.894287,2222.798096 1993.184326,2171.882080 
	C1984.656494,2150.916504 1971.813843,2132.741211 1953.909302,2118.509033 
	C1919.148315,2090.878174 1875.522461,2090.771729 1840.622314,2118.164795 
	C1826.220825,2129.468506 1815.408081,2143.703125 1806.015869,2160.965820 
z"/>
<path fill="#326C9B" opacity="1.000000" stroke="none" 
	d="
M73.889008,955.910400 
	C87.394096,918.724060 103.783913,883.848511 125.549011,851.606018 
	C164.261658,794.257751 215.910339,752.504761 278.694641,724.111145 
	C328.838135,701.434204 381.631165,688.167419 435.819855,679.768677 
	C480.959442,672.772461 526.335266,668.463501 572.004272,667.618774 
	C607.646057,666.959595 643.362000,665.125122 678.930176,666.593689 
	C816.198975,672.261292 953.510376,669.218628 1090.798828,669.835571 
	C1227.793335,670.451233 1364.792114,670.116577 1501.788940,670.198242 
	C1504.738281,670.199951 1507.687622,670.198425 1510.435425,670.198425 
	C1512.501953,662.297974 1512.736328,584.010132 1510.776733,570.027039 
	C1489.475464,568.842834 1467.943848,569.726929 1446.442871,569.583557 
	C1424.444702,569.436890 1402.444214,569.611084 1380.444824,569.641724 
	C1358.778687,569.671936 1337.112549,569.705933 1315.446411,569.724182 
	C1293.780273,569.742432 1272.114014,569.736938 1250.447876,569.753357 
	C1228.448364,569.770081 1206.448975,569.802734 1184.449463,569.824829 
	C1162.783325,569.846558 1141.117065,569.864563 1119.450928,569.882935 
	C1097.451416,569.901550 1075.452026,569.915710 1053.452515,569.937256 
	C1031.786377,569.958435 1010.120178,569.991272 988.454041,570.010315 
	C966.787842,570.029419 945.121704,570.034668 923.455505,570.051636 
	C901.455994,570.068848 879.456543,570.101074 857.457031,570.111816 
	C835.841370,570.122375 814.225708,570.114075 791.495056,570.114075 
	C790.373840,558.927307 788.553711,548.438416 788.414001,537.927246 
	C788.002014,506.940216 786.716431,475.852600 788.556580,444.970215 
	C792.908142,371.937378 807.719788,301.153656 840.090515,234.888748 
	C882.522461,148.027939 948.612244,86.820045 1039.203247,52.537773 
	C1081.193604,36.647423 1124.768677,27.840990 1169.432129,23.700874 
	C1213.658691,19.601254 1257.971924,20.537735 1302.271118,20.395668 
	C1338.936157,20.278082 1375.604248,20.284763 1412.267700,20.603603 
	C1464.587646,21.058601 1516.911133,21.531021 1569.220825,22.603085 
	C1606.853271,23.374344 1644.505127,24.452078 1682.075928,26.638718 
	C1724.274170,29.094677 1766.471802,32.148899 1808.522461,36.399555 
	C1862.542725,41.860165 1916.091431,50.529068 1968.306641,66.020142 
	C2001.971558,76.007797 2034.316772,89.051910 2064.317383,107.550346 
	C2116.536865,139.749237 2151.783936,185.707199 2173.914062,242.355621 
	C2187.546875,277.252747 2196.226807,313.436218 2202.118896,350.355316 
	C2208.948975,393.149658 2213.031738,436.201904 2214.362061,479.515503 
	C2215.037109,501.489532 2215.817139,523.461426 2216.307617,545.439697 
	C2217.133301,582.418884 2217.714111,619.403442 2218.495850,656.383667 
	C2219.087646,684.365784 2220.074463,712.341370 2220.454102,740.325684 
	C2221.073242,785.971436 2222.272705,831.637695 2221.498535,877.265991 
	C2220.696777,924.542908 2217.519287,971.747559 2206.114014,1017.956848 
	C2199.613525,1044.293579 2190.416992,1069.533447 2176.205566,1092.795776 
	C2156.005127,1125.861450 2127.657471,1149.964722 2093.760254,1167.985352 
	C2059.347168,1186.280640 2022.392822,1197.351562 1984.598145,1205.820923 
	C1950.473267,1213.467896 1915.922485,1218.542114 1881.153320,1222.382935 
	C1835.120117,1227.468018 1788.964844,1230.351074 1742.712891,1232.500977 
	C1651.446533,1236.743286 1560.151489,1236.386597 1468.841675,1235.507690 
	C1422.192261,1235.058594 1375.544922,1234.183350 1328.895020,1234.058594 
	C1270.902710,1233.903442 1213.003906,1236.726807 1155.292236,1242.322510 
	C1098.914307,1247.788940 1043.058594,1256.560181 988.369873,1271.822388 
	C937.734009,1285.953369 889.244324,1304.992432 844.848145,1333.606323 
	C765.635010,1384.660156 716.091431,1456.614258 693.928406,1547.828247 
	C685.404785,1582.908081 680.983948,1618.383057 681.357422,1654.638672 
	C682.167908,1733.297363 682.016052,1811.965942 682.255249,1890.630493 
	C682.267334,1894.590820 682.256836,1898.551147 682.256836,1903.194092 
	C679.114807,1903.523193 676.577271,1904.047485 674.046631,1904.016235 
	C606.731018,1903.186646 539.415771,1902.332397 472.101379,1901.409424 
	C434.783234,1900.897827 397.468353,1900.041748 360.148987,1899.798584 
	C348.645172,1899.723633 337.672913,1897.845459 326.823608,1894.365601 
	C281.982758,1879.982178 242.773468,1855.912354 207.688156,1824.867798 
	C150.023148,1773.844360 110.646568,1710.354614 82.097694,1639.587036 
	C59.440224,1583.422974 45.262924,1525.021118 35.647007,1465.326538 
	C24.955826,1398.956909 21.520967,1332.232666 24.470009,1265.168579 
	C26.576200,1217.271606 29.672125,1169.423462 36.099873,1121.866089 
	C43.693771,1065.680298 54.716232,1010.266418 73.889008,955.910400 
M1065.956299,162.622116 
	C1060.212891,165.244385 1054.211914,167.421097 1048.770752,170.566238 
	C1025.421875,184.062469 1009.477356,204.275742 998.522339,228.442566 
	C980.586853,268.008270 977.352539,309.285065 986.691528,351.439026 
	C993.222900,380.920227 1006.153870,407.354889 1028.153687,428.647156 
	C1063.752686,463.101410 1111.742432,465.495544 1150.445923,434.936798 
	C1168.431274,420.736298 1180.717529,402.262329 1189.477051,381.446167 
	C1202.942627,349.446259 1206.762817,316.105072 1202.363037,281.672821 
	C1198.662964,252.715408 1189.121948,226.078217 1171.982056,202.365845 
	C1147.948730,169.116882 1108.402832,149.314194 1065.956299,162.622116 
z"/>
<path fill="#080805" opacity="1.000000" stroke="none" 
	d="
M1806.344971,2160.304199 
	C1815.408081,2143.703125 1826.220825,2129.468506 1840.622314,2118.164795 
	C1875.522461,2090.771729 1919.148315,2090.878174 1953.909302,2118.509033 
	C1971.813843,2132.741211 1984.656494,2150.916504 1993.184326,2171.882080 
	C2013.894287,2222.798096 2013.518433,2273.796143 1991.855103,2324.387207 
	C1984.841431,2340.766357 1974.819946,2355.270752 1961.939331,2367.703125 
	C1923.221924,2405.072754 1869.749878,2404.791260 1831.412476,2366.933838 
	C1809.869019,2345.660156 1797.211548,2319.461914 1790.835083,2290.301514 
	C1781.054077,2245.571533 1785.308960,2202.240479 1806.344971,2160.304199 
M1872.320923,2120.841553 
	C1848.781860,2131.070801 1833.212769,2149.359619 1822.445557,2171.828857 
	C1804.026001,2210.267090 1801.248169,2250.406982 1811.514160,2291.556885 
	C1817.676880,2316.259521 1828.760864,2338.384766 1847.489990,2356.037598 
	C1877.659546,2384.473633 1916.731445,2384.317383 1946.843262,2355.897949 
	C1957.630493,2345.716797 1965.980347,2333.738037 1972.202393,2320.333008 
	C1990.001831,2281.984863 1992.719238,2242.232666 1982.544800,2201.470947 
	C1976.380981,2176.776367 1965.317871,2154.579590 1946.431763,2137.081787 
	C1925.558105,2117.742432 1901.573608,2110.423828 1872.320923,2120.841553 
z"/>
<path fill="#050606" opacity="1.000000" stroke="none" 
	d="
M1066.728760,162.408569 
	C1108.402832,149.314194 1147.948730,169.116882 1171.982056,202.365845 
	C1189.121948,226.078217 1198.662964,252.715408 1202.363037,281.672821 
	C1206.762817,316.105072 1202.942627,349.446259 1189.477051,381.446167 
	C1180.717529,402.262329 1168.431274,420.736298 1150.445923,434.936798 
	C1111.742432,465.495544 1063.752686,463.101410 1028.153687,428.647156 
	C1006.153870,407.354889 993.222900,380.920227 986.691528,351.439026 
	C977.352539,309.285065 980.586853,268.008270 998.522339,228.442566 
	C1009.477356,204.275742 1025.421875,184.062469 1048.770752,170.566238 
	C1054.211914,167.421097 1060.212891,165.244385 1066.728760,162.408569 
M1110.112183,435.724487 
	C1128.044800,430.432404 1142.143433,419.556091 1153.235107,404.904358 
	C1158.822266,397.523834 1164.069092,389.601624 1167.871338,381.200867 
	C1190.116577,332.050476 1190.092529,282.610413 1167.964844,233.421249 
	C1160.496948,216.820099 1149.634888,202.543762 1134.916260,191.496796 
	C1108.384155,171.583344 1077.409912,171.635513 1050.859985,191.583923 
	C1036.702881,202.220978 1026.046875,215.863251 1018.707764,231.742935 
	C995.586487,281.770660 995.544556,332.135193 1018.387634,382.277649 
	C1025.215942,397.266357 1035.046387,410.340820 1047.965210,420.771698 
	C1065.746460,435.128754 1085.626587,441.598877 1110.112183,435.724487 
z"/>
<path fill="#FEFEFE" opacity="1.000000" stroke="none" 
	d="
M1873.052246,2120.553223 
	C1901.573608,2110.423828 1925.558105,2117.742432 1946.431763,2137.081787 
	C1965.317871,2154.579590 1976.380981,2176.776367 1982.544800,2201.470947 
	C1992.719238,2242.232666 1990.001831,2281.984863 1972.202393,2320.333008 
	C1965.980347,2333.738037 1957.630493,2345.716797 1946.843262,2355.897949 
	C1916.731445,2384.317383 1877.659546,2384.473633 1847.489990,2356.037598 
	C1828.760864,2338.384766 1817.676880,2316.259521 1811.514160,2291.556885 
	C1801.248169,2250.406982 1804.026001,2210.267090 1822.445557,2171.828857 
	C1833.212769,2149.359619 1848.781860,2131.070801 1873.052246,2120.553223 
z"/>
<path fill="#FEFEFE" opacity="1.000000" stroke="none" 
	d="
M1109.298950,435.882599 
	C1085.626587,441.598877 1065.746460,435.128754 1047.965210,420.771698 
	C1035.046387,410.340820 1025.215942,397.266357 1018.387634,382.277649 
	C995.544556,332.135193 995.586487,281.770660 1018.707764,231.742935 
	C1026.046875,215.863251 1036.702881,202.220978 1050.859985,191.583923 
	C1077.409912,171.635513 1108.384155,171.583344 1134.916260,191.496796 
	C1149.634888,202.543762 1160.496948,216.820099 1167.964844,233.421249 
	C1190.092529,282.610413 1190.116577,332.050476 1167.871338,381.200867 
	C1164.069092,389.601624 1158.822266,397.523834 1153.235107,404.904358 
	C1142.143433,419.556091 1128.044800,430.432404 1109.298950,435.882599 
z"/>
</svg>