<svg version="1.1" id="Layer_1" xmlns="http://www.w3.org/2000/svg" xmlns:xlink="http://www.w3.org/1999/xlink" x="0px" y="0px"
	 width="100%" viewBox="0 0 288 288" enable-background="new 0 0 288 288" xml:space="preserve">
<path fill="#FEFEFE" opacity="1.000000" stroke="none" 
	d="
M156.000000,289.000000 
	C104.000008,289.000000 52.500011,289.000000 1.000014,289.000000 
	C1.000009,193.000015 1.000009,97.000038 1.000005,1.000040 
	C96.999969,1.000026 192.999939,1.000026 288.999939,1.000013 
	C288.999939,96.999962 288.999939,192.999924 288.999969,288.999939 
	C244.833328,289.000000 200.666672,289.000000 156.000000,289.000000 
M102.847488,208.330872 
	C106.170868,208.330872 109.494247,208.330872 112.174088,208.330872 
	C111.266144,205.467178 110.297226,203.290649 109.924843,201.016434 
	C109.447792,198.103043 109.964378,194.942001 109.065727,192.212677 
	C108.472054,190.409637 106.162193,187.942108 104.586609,187.917068 
	C99.374138,187.834167 94.146187,188.724869 90.111107,189.124420 
	C90.830139,192.996796 91.861046,196.100601 91.851837,199.201309 
	C91.842979,202.184387 90.758141,205.164291 90.126923,208.238876 
	C92.881210,208.238876 96.480881,208.238876 100.341827,208.635956 
	C100.867126,208.504028 101.392426,208.372086 102.847488,208.330872 
M193.229614,62.192596 
	C175.806396,62.288815 158.383179,62.385029 140.348740,62.582153 
	C107.147293,95.914719 73.945831,129.247284 40.165913,163.160599 
	C58.077835,163.160599 75.196106,163.241028 92.310822,163.031387 
	C93.952515,163.011276 95.840813,161.457199 97.159904,160.154724 
	C108.897079,148.565369 120.508408,136.848724 132.213730,125.226891 
	C135.022461,122.438202 138.043182,119.863029 140.875717,118.096764 
	C140.875717,132.998962 140.875717,147.901154 140.875717,162.690155 
	C159.372116,162.690155 177.066605,162.690155 194.995728,162.690155 
	C194.995728,146.782150 195.026855,131.310394 194.987503,115.838814 
	C194.942642,98.198792 194.834915,80.558922 194.791107,62.533474 
	C194.791107,62.533474 194.536560,62.248974 194.536560,62.248974 
	C194.536560,62.248974 194.174103,62.366760 193.229614,62.192596 
M205.890518,62.925053 
	C205.872040,95.247513 205.799255,127.570236 205.958267,159.891815 
	C205.968765,162.027756 207.243393,164.649658 208.779022,166.209946 
	C224.555435,182.239716 240.505936,198.098175 256.413330,213.998962 
	C257.386841,214.972076 258.406250,215.899261 259.998444,217.412491 
	C259.998444,196.990616 260.017883,177.534866 259.994049,158.079178 
	C259.954895,126.093185 259.887726,94.107224 259.987427,61.175564 
	C259.987427,43.779613 259.987427,26.383667 259.987427,7.781695 
	C255.065689,12.727569 250.988159,16.804642 246.932999,20.903854 
	C233.367004,34.617207 219.809006,48.338490 205.890518,62.925053 
M190.752518,208.236099 
	C192.802109,207.883148 194.851700,207.530182 196.004089,207.331741 
	C195.248215,204.416641 194.174820,202.063843 194.105667,199.681900 
	C193.880157,191.914154 194.021164,184.135757 194.021164,176.026291 
	C191.186752,176.731445 188.494308,177.401260 187.095139,177.749344 
	C188.025970,181.405533 188.786392,184.392395 189.583313,187.522598 
	C186.936066,187.643646 185.108307,187.506592 183.374039,187.846466 
	C177.311646,189.034546 173.764618,194.640274 174.910156,200.976364 
	C175.905289,206.480591 180.651093,209.174911 187.063339,208.000854 
	C188.008469,207.827820 189.056000,208.214142 190.752518,208.236099 
M44.062492,182.493866 
	C44.939568,183.776352 45.816643,185.058838 47.316364,187.251785 
	C47.952557,178.339890 45.413818,175.928253 38.075928,177.226089 
	C34.250355,177.902710 30.516687,179.850082 30.383205,183.876419 
	C30.289555,186.701324 32.193771,189.965408 34.062798,192.366196 
	C35.600075,194.340851 38.646923,195.067612 40.554974,196.850235 
	C41.974388,198.176361 43.298035,200.265594 43.413269,202.093796 
	C43.489548,203.304016 41.399750,205.660080 40.196449,205.716095 
	C38.151783,205.811325 35.783855,204.869003 34.038849,203.659790 
	C32.597527,202.661011 31.860094,200.646423 30.810751,199.081970 
	C30.241768,199.289230 29.672785,199.496506 29.103800,199.703766 
	C29.963984,202.392487 30.110130,206.628860 31.842136,207.427948 
	C34.873585,208.826599 39.167938,209.025314 42.385784,208.003311 
	C45.030212,207.163422 47.741348,204.185684 48.869999,201.502335 
	C50.354073,197.973953 48.231762,194.800720 44.917011,192.744934 
	C42.661507,191.346115 40.336586,190.027557 38.233540,188.422974 
	C35.861912,186.613434 33.792618,184.187592 36.274967,181.304413 
	C38.583920,178.622620 41.307350,179.505814 44.062492,182.493866 
M131.867691,200.099243 
	C132.948685,205.381760 136.371658,208.147629 141.562729,208.511597 
	C146.306610,208.844208 150.002228,206.820190 151.958847,202.335419 
	C153.808853,198.094971 153.018616,194.103378 149.892166,190.802551 
	C146.568314,187.293335 142.272232,186.648666 137.977493,188.430389 
	C133.343124,190.353012 131.300171,194.191925 131.867691,200.099243 
M29.203617,246.460281 
	C30.469507,245.331757 32.629040,244.349457 32.841919,243.048615 
	C33.635788,238.197449 36.584152,238.010147 40.609257,237.869980 
	C44.714725,237.727005 46.228443,239.452927 46.895737,242.973160 
	C47.347580,245.356796 48.085712,247.524689 51.618469,245.948471 
	C48.547630,237.181519 45.580994,228.580261 42.468674,220.032028 
	C42.159767,219.183594 40.864910,218.028488 40.199219,218.130905 
	C39.189144,218.286301 37.814423,219.237534 37.486259,220.165894 
	C34.455063,228.740692 31.615675,237.383301 29.203617,246.460281 
M75.705605,197.049194 
	C73.748756,197.916321 71.607597,198.516403 69.876694,199.710938 
	C67.024765,201.679077 67.045044,205.994415 69.656189,207.762711 
	C71.668488,209.125488 84.445030,208.063049 86.369514,206.359283 
	C86.469025,206.271194 86.456619,206.056686 86.496323,205.901031 
	C84.785393,204.302414 83.717583,202.521484 83.286278,200.597839 
	C82.896973,198.861511 83.162514,196.967911 83.212593,195.145706 
	C83.315063,191.417160 82.963051,188.017960 78.183754,187.533539 
	C73.557793,187.064651 69.328918,189.894043 67.991898,195.405975 
	C70.035027,194.610077 72.168655,194.434067 72.628082,193.464630 
	C73.607201,191.398575 74.235397,188.779938 76.809845,190.791580 
	C77.728851,191.509720 76.658615,194.773605 75.705605,197.049194 
M130.907120,181.199524 
	C131.902802,180.459106 132.898483,179.718704 133.894150,178.978287 
	C132.968018,178.006851 132.202881,176.484070 131.088150,176.158600 
	C126.024872,174.680222 121.080490,178.305634 119.262596,184.292358 
	C118.611023,186.438141 117.478050,188.437759 116.455856,190.750580 
	C121.600021,191.665253 118.647560,195.998047 118.802345,198.887161 
	C118.964729,201.918289 117.753380,205.023010 117.167999,207.966766 
	C119.921188,207.966766 123.435425,207.966766 127.369957,207.966766 
	C121.300133,203.078323 125.258423,197.025925 123.919128,191.864822 
	C126.093513,191.246246 127.775620,190.767715 129.457718,190.289169 
	C129.431503,189.905426 129.405273,189.521667 129.379044,189.137924 
	C127.613419,188.715347 125.847794,188.292755 123.883438,187.822601 
	C124.096931,185.729431 124.028664,183.857895 124.515961,182.144348 
	C125.566406,178.450531 127.450157,177.310654 130.907120,181.199524 
M57.942406,268.282013 
	C57.942406,270.128845 57.942406,271.975677 57.942406,273.822510 
	C55.223507,270.688019 53.402481,267.542877 51.594429,264.390350 
	C47.847107,257.856537 47.849953,257.854919 44.558075,258.542694 
	C43.654629,276.273468 43.931419,279.236023 47.227234,281.006561 
	C47.227234,275.526337 47.227234,270.357117 47.227234,265.187897 
	C50.186176,267.919373 51.979115,270.969421 53.733307,274.041595 
	C57.490932,280.622498 57.482742,280.627167 60.908321,280.160370 
	C60.908321,273.547455 60.974861,266.899109 60.831615,260.255249 
	C60.811710,259.331909 59.757481,258.430847 59.182064,257.519440 
	C58.768867,257.683685 58.355667,257.847931 57.942467,258.012177 
	C57.942467,261.128571 57.942467,264.244995 57.942406,268.282013 
M212.040054,278.959503 
	C212.041489,272.975708 212.129196,266.989563 211.965317,261.010284 
	C211.935593,259.926056 210.875366,258.870056 210.290909,257.801025 
	C209.845871,258.843658 209.053070,259.874329 209.016769,260.930969 
	C208.869873,265.208374 208.955780,269.493805 208.955780,274.232880 
	C203.608383,268.863312 203.149185,260.809326 195.913498,257.114807 
	C194.470825,269.655609 195.091095,278.817719 198.125336,281.464508 
	C198.125336,275.565216 198.125336,270.333923 198.125336,265.102600 
	C198.575363,265.008331 199.025391,264.914062 199.475418,264.819794 
	C202.074036,269.347473 204.634644,273.897614 207.289841,278.391846 
	C208.360977,280.204895 209.483795,282.406952 212.040054,278.959503 
M166.731766,280.499695 
	C172.850311,277.925201 168.893646,272.933685 170.222153,268.544586 
	C166.946747,268.829865 164.501205,269.042877 162.055649,269.255890 
	C162.084778,269.743622 162.113907,270.231354 162.143036,270.719086 
	C163.685791,271.014221 165.228561,271.309387 168.207886,271.879395 
	C166.686844,274.302948 165.553146,277.701111 164.317307,277.738647 
	C161.932846,277.811096 157.789505,276.403809 157.411102,274.864014 
	C156.500351,271.158020 156.608536,266.771545 157.832138,263.179535 
	C158.332123,261.711823 162.747726,261.428528 165.441895,260.930817 
	C166.528076,260.730103 167.774780,261.398376 169.943420,261.902405 
	C165.434998,255.707138 157.386047,256.379425 154.147217,262.258942 
	C151.577225,266.924347 151.592316,271.886810 154.204849,276.531250 
	C156.801346,281.147156 161.201477,281.630646 166.731766,280.499695 
M171.076874,193.082550 
	C171.502777,191.678543 171.928696,190.274551 172.354599,188.870560 
	C170.812759,188.485077 169.287994,187.901993 167.724518,187.766907 
	C165.986145,187.616684 164.186584,187.714279 162.460434,187.993362 
	C159.988388,188.393051 157.558762,189.055176 154.526993,189.736496 
	C159.618301,193.758286 159.714783,203.312668 155.309418,208.101456 
	C159.182739,208.101456 162.867416,208.101456 165.282806,208.101456 
	C164.713760,204.393158 163.768661,200.842697 163.714508,197.278702 
	C163.630280,191.735336 165.105087,190.978622 171.076874,193.082550 
M182.591049,257.723511 
	C180.635345,257.723511 178.679626,257.723511 176.620789,257.723511 
	C176.620789,265.661163 176.620789,273.073761 176.620789,280.440094 
	C185.865433,281.779205 189.129852,281.220367 189.787094,277.862976 
	C186.447617,277.862976 183.184402,277.862976 180.012054,277.862976 
	C180.012054,275.035156 180.012054,272.652313 180.012054,269.893860 
	C182.940079,269.893860 185.524139,269.893860 188.140945,269.893860 
	C188.140945,269.016602 188.230560,268.134125 188.127869,268.111145 
	C185.386765,267.497772 182.625854,266.972900 179.926208,266.444336 
	C179.926208,264.641266 179.926208,262.874237 179.926208,261.145386 
	C183.464157,260.681732 186.749512,260.251221 190.034866,259.820679 
	C189.938660,259.121643 189.842468,258.422607 189.746262,257.723572 
	C187.655411,257.723572 185.564545,257.723572 182.591049,257.723511 
M244.385895,277.899841 
	C243.894150,275.415314 243.402405,272.930786 242.797424,269.874146 
	C246.487808,269.874146 249.233063,269.874146 251.978317,269.874146 
	C252.089569,269.247162 252.200836,268.620178 252.312088,267.993195 
	C249.343842,267.511719 246.375580,267.030212 243.448364,266.555389 
	C243.448364,264.760162 243.448364,262.976135 243.448364,260.918365 
	C246.981873,260.666199 250.331451,260.427155 253.681015,260.188080 
	C253.646286,259.582916 253.611557,258.977722 253.576828,258.372559 
	C249.174088,258.372559 244.771347,258.372559 240.425140,258.372559 
	C240.425140,265.726196 240.425140,273.143036 240.425140,281.086731 
	C245.127045,280.066711 249.970932,282.551025 253.924194,279.444031 
	C253.874954,278.943359 253.825714,278.442657 253.776459,277.941986 
	C250.981232,277.941986 248.185989,277.941986 244.385895,277.899841 
M56.994629,225.702332 
	C56.991165,231.857468 56.925583,238.013977 57.061848,244.166016 
	C57.079128,244.946274 58.153564,245.703125 58.738228,246.470810 
	C59.164272,245.707901 59.900715,244.967392 59.957695,244.177841 
	C60.123222,241.884277 60.016369,239.571045 60.016369,237.474060 
	C64.498734,235.805786 64.862602,239.486542 66.471954,241.553513 
	C67.983932,243.495422 68.070763,247.339600 72.591927,246.254486 
	C70.843193,242.963623 69.250298,239.966019 67.657402,236.968414 
	C68.202591,237.039215 68.747780,237.110031 69.292969,237.180832 
	C70.207703,234.439453 71.733482,231.712280 71.797729,228.951096 
	C71.833679,227.405746 69.612297,224.671951 68.118286,224.453247 
	C64.532333,223.928345 60.775291,224.572342 56.994629,225.702332 
M99.346405,257.783173 
	C95.603638,257.783173 91.860870,257.783173 88.304153,257.783173 
	C88.304153,265.853699 88.304153,273.260529 88.304153,281.123199 
	C92.917931,280.006012 97.669823,282.479370 101.593460,279.561310 
	C101.565819,279.079407 101.538177,278.597473 101.510536,278.115570 
	C98.129288,278.115570 94.748047,278.115570 91.266739,278.115570 
	C91.266739,275.141571 91.266739,272.740814 91.266739,269.926086 
	C94.251404,269.926086 97.012505,269.926086 99.773613,269.926086 
	C99.884758,269.317566 99.995895,268.709045 100.107040,268.100555 
	C97.178421,267.597809 94.249809,267.095093 91.278252,266.584991 
	C91.278252,264.657410 91.278252,262.726227 91.278252,260.576111 
	C94.003258,260.576111 96.493805,260.677399 98.971733,260.544067 
	C100.954468,260.437378 100.947655,260.310760 99.346405,257.783173 
M170.524384,225.838837 
	C168.277786,232.623856 166.031189,239.408875 163.784592,246.193893 
	C164.360931,246.462509 164.937256,246.731125 165.513596,246.999741 
	C166.352936,245.711502 167.663330,244.514999 167.935715,243.116333 
	C168.544678,239.989288 170.491745,239.829636 173.034515,239.832932 
	C175.574539,239.836227 177.518326,239.985916 178.145630,243.116959 
	C178.423126,244.501984 179.824371,245.661850 180.715469,246.923935 
	C181.267715,246.580032 181.819946,246.236130 182.372192,245.892227 
	C180.059723,239.048721 177.846268,232.167252 175.261353,225.428253 
	C175.035812,224.840286 172.367661,225.189240 170.524384,225.838837 
M120.288940,223.974808 
	C116.052185,223.974808 111.815422,223.974808 107.267616,223.974808 
	C107.267616,230.873901 107.189644,237.345032 107.352974,243.810059 
	C107.377045,244.762909 108.544449,245.686874 109.182861,246.624207 
	C109.698860,245.730972 110.569458,244.872208 110.660240,243.937653 
	C110.878410,241.691818 110.730858,239.410461 110.730858,237.243439 
	C118.383400,236.235931 118.383400,236.235931 118.964478,233.873978 
	C116.358841,233.683044 113.785431,233.494461 111.133545,233.300140 
	C111.133545,230.852966 111.133545,228.799271 111.133545,226.377136 
	C113.329292,226.377136 115.180145,226.601013 116.943420,226.304321 
	C118.286255,226.078369 119.517914,225.191681 120.288940,223.974808 
M61.542892,188.138733 
	C60.383759,186.781860 59.224628,185.425003 58.065495,184.068130 
	C57.673672,183.447235 57.281849,182.826340 56.890026,182.205444 
	C56.153008,183.692261 55.629101,185.348923 54.618099,186.617355 
	C53.636009,187.849503 52.154301,188.683426 50.891987,189.692215 
	C55.273003,190.004074 53.862049,193.116013 53.964680,195.358658 
	C54.093414,198.171860 53.501701,201.206863 54.390579,203.734894 
	C55.065754,205.655106 57.346531,207.681854 59.325176,208.266968 
	C61.002197,208.762878 63.269714,207.261902 65.275932,206.644562 
	C65.117645,206.228104 64.959358,205.811646 64.801071,205.395187 
	C58.695030,206.444931 58.540085,204.792831 59.720844,191.274063 
	C61.444057,191.062683 63.173225,190.850571 64.902390,190.638458 
	C65.014137,190.272766 65.125893,189.907074 65.237640,189.541397 
	C64.279045,189.080429 63.320450,188.619461 61.542892,188.138733 
M222.614243,258.981842 
	C217.904282,263.427216 216.535233,269.618958 219.011963,275.273651 
	C221.604599,281.192963 229.748245,283.223358 233.889877,278.900726 
	C234.392075,278.376587 234.236420,277.222107 234.482361,275.800964 
	C227.830566,279.145966 223.833908,278.710754 222.410172,274.345245 
	C221.491943,271.529724 221.397446,268.069672 222.094238,265.178070 
	C223.779053,258.186371 229.749130,261.144867 234.445923,261.014404 
	C231.142715,256.803833 227.389282,256.721344 222.614243,258.981842 
M137.673584,235.478912 
	C138.706482,232.798676 139.013672,229.055252 140.966293,227.722473 
	C143.132294,226.244019 146.800720,226.966705 149.822556,226.730377 
	C149.552383,224.214081 146.915314,222.599564 143.046600,223.229034 
	C137.890594,224.067978 134.570343,228.189224 134.138977,234.285599 
	C133.728973,240.079819 136.607468,245.593948 141.381729,246.472717 
	C144.038727,246.961777 147.042557,245.789825 149.829941,245.117233 
	C150.269684,245.011139 150.390045,243.581436 150.658081,242.763733 
	C149.954987,242.673096 149.169861,242.331314 148.561310,242.530136 
	C141.231796,244.924484 139.103546,243.728973 137.673584,235.478912 
M76.032486,274.346588 
	C76.032486,269.873779 76.032486,265.401001 76.032486,261.034515 
	C78.582031,260.606201 80.797844,260.233978 83.013649,259.861725 
	C82.955658,259.374390 82.897675,258.887024 82.839684,258.399658 
	C77.232147,258.399658 71.624603,258.399658 66.017067,258.399658 
	C65.925117,258.830322 65.833176,259.261017 65.741234,259.691681 
	C67.983116,260.193604 70.224998,260.695496 72.787140,261.269104 
	C72.787140,264.879883 72.394135,268.562592 72.909775,272.113373 
	C73.332726,275.025940 70.607994,279.168243 76.032501,281.457062 
	C76.032501,278.894958 76.032501,277.093781 76.032486,274.346588 
M130.323349,277.951141 
	C129.625046,276.826843 128.367294,275.723846 128.323425,274.574585 
	C128.112259,269.039581 128.228424,263.492126 128.228424,257.718079 
	C124.893112,258.931122 123.874344,271.739594 125.754578,280.533661 
	C135.921783,281.658386 137.450043,281.354065 137.706100,277.955322 
	C135.558350,277.955322 133.420837,277.955322 130.323349,277.951141 
M187.004639,245.061523 
	C190.665314,247.678421 198.291931,247.261169 199.959549,244.017944 
	C196.605438,243.858017 193.398026,243.705078 190.028076,243.544388 
	C190.028076,237.540512 190.088852,232.066925 189.968094,226.597351 
	C189.948044,225.689194 189.136185,224.798508 188.690247,223.899765 
	C188.117126,224.836319 187.073074,225.760452 187.047958,226.711472 
	C186.894562,232.517075 186.972519,238.328781 187.004639,245.061523 
M110.186256,272.345459 
	C110.185562,268.353912 110.270111,264.359100 110.116623,260.373444 
	C110.083504,259.513550 109.192589,258.686737 108.696793,257.844666 
	C108.127052,258.600708 107.077370,259.347565 107.062721,260.114227 
	C106.933250,266.885803 106.987587,273.660889 106.987587,280.968384 
	C111.638840,279.980621 116.302895,282.610992 119.941406,278.071960 
	C116.857338,278.071960 113.773262,278.071960 110.413284,278.071960 
	C110.324638,276.212463 110.255341,274.758881 110.186256,272.345459 
M82.796890,242.196960 
	C82.968689,243.659073 83.140495,245.121185 83.312302,246.583298 
	C83.942757,246.591812 84.573219,246.600342 85.203674,246.608856 
	C87.026886,240.067383 84.833687,233.016129 86.351395,226.546417 
	C88.708748,226.199570 90.769775,225.896332 92.830811,225.593094 
	C92.761986,225.234863 92.693169,224.876617 92.624352,224.518387 
	C87.114273,224.518387 81.604202,224.518387 76.094124,224.518387 
	C76.071831,224.926712 76.049538,225.335037 76.027245,225.743347 
	C78.168915,226.034698 80.310585,226.326050 82.797325,226.664337 
	C82.797325,231.716995 82.797325,236.492722 82.796890,242.196960 
M143.570114,280.664001 
	C146.216614,281.553955 146.726105,280.125336 146.708069,277.897308 
	C146.661102,272.095795 146.817093,266.288513 146.577896,260.496521 
	C146.535263,259.463867 144.984192,258.493561 144.129639,257.494446 
	C143.802475,257.830780 143.475296,258.167145 143.148117,258.503479 
	C143.148117,265.628815 143.148117,272.754120 143.570114,280.664001 
M128.960632,240.324951 
	C128.959503,235.665451 129.037750,231.003403 128.887527,226.348709 
	C128.858871,225.460648 127.928169,224.601685 127.413635,223.729279 
	C126.701309,224.413193 125.388161,225.082001 125.370522,225.783401 
	C125.211609,232.102768 125.227005,238.429001 125.362068,244.749557 
	C125.375839,245.393997 126.508636,246.014511 127.122162,246.646118 
	C127.727814,246.015350 128.654541,245.474747 128.862976,244.732452 
	C129.166656,243.650909 128.953461,242.424225 128.960632,240.324951 
M97.256966,234.535965 
	C97.262726,237.862076 97.142075,241.196869 97.369827,244.507706 
	C97.421860,245.264145 98.676041,245.937912 99.376945,246.649719 
	C99.899521,245.933289 100.862152,245.225067 100.875671,244.499161 
	C100.993317,238.181808 100.991295,231.860214 100.859024,225.543365 
	C100.846123,224.927429 99.718178,224.334854 99.107803,223.731445 
	C98.499443,224.349625 97.418427,224.930283 97.365829,225.592575 
	C97.155846,228.237396 97.265694,230.907608 97.256966,234.535965 
M35.177174,274.367676 
	C35.176487,267.871338 35.228848,261.374054 35.113991,254.879745 
	C35.098022,253.977020 34.257736,253.088867 33.799046,252.193970 
	C33.198425,252.930649 32.085648,253.660233 32.075325,254.405106 
	C31.953722,263.181396 31.997192,271.959991 31.997192,280.737976 
	C32.679359,280.851685 33.361526,280.965393 34.043690,281.079102 
	C34.421463,279.161621 34.799232,277.244141 35.177174,274.367676 
M156.103561,236.466248 
	C156.643936,239.824661 154.821533,243.679749 158.683807,246.439072 
	C158.683807,238.946289 158.683807,231.453522 158.683807,223.960739 
	C158.196884,223.906662 157.709946,223.852585 157.223022,223.798492 
	C154.759918,227.324188 156.744339,231.638840 156.103561,236.466248 
z"/>
<path fill="#000000" opacity="1.000000" stroke="none" 
	d="
M259.832367,62.121243 
	C259.887726,94.107224 259.954895,126.093185 259.994049,158.079178 
	C260.017883,177.534866 259.998444,196.990616 259.998444,217.412491 
	C258.406250,215.899261 257.386841,214.972076 256.413330,213.998962 
	C240.505936,198.098175 224.555435,182.239716 208.779022,166.209946 
	C207.243393,164.649658 205.968765,162.027756 205.958267,159.891815 
	C205.799255,127.570236 205.872040,95.247513 206.520706,62.520020 
	C224.711380,62.117069 242.271881,62.119156 259.832367,62.121243 
z"/>
<path fill="#5C5B5B" opacity="1.000000" stroke="none" 
	d="
M140.966400,117.189651 
	C138.043182,119.863029 135.022461,122.438202 132.213730,125.226891 
	C120.508408,136.848724 108.897079,148.565369 97.159904,160.154724 
	C95.840813,161.457199 93.952515,163.011276 92.310822,163.031387 
	C75.196106,163.241028 58.077835,163.160599 40.165913,163.160599 
	C73.945831,129.247284 107.147293,95.914719 140.664978,62.966377 
	C140.988617,80.888672 140.996017,98.426743 140.982544,116.270668 
	C140.963242,116.780907 140.964828,116.985283 140.966400,117.189651 
z"/>
<path fill="#8C8C8C" opacity="1.000000" stroke="none" 
	d="
M140.921051,117.643211 
	C140.964828,116.985283 140.963242,116.780907 141.288940,116.145332 
	C158.411133,98.950180 175.211090,82.191261 191.985382,65.406670 
	C192.784363,64.607201 193.355927,63.580463 194.204727,62.749298 
	C194.376053,62.839039 194.754501,62.918991 194.754501,62.918991 
	C194.834915,80.558922 194.942642,98.198792 194.987503,115.838814 
	C195.026855,131.310394 194.995728,146.782150 194.995728,162.690155 
	C177.066605,162.690155 159.372116,162.690155 140.875717,162.690155 
	C140.875717,147.901154 140.875717,132.998962 140.921051,117.643211 
z"/>
<path fill="#8E1819" opacity="1.000000" stroke="none" 
	d="
M259.909912,61.648403 
	C242.271881,62.119156 224.711380,62.117069 206.699417,62.085861 
	C219.809006,48.338490 233.367004,34.617207 246.932999,20.903854 
	C250.988159,16.804642 255.065689,12.727569 259.987427,7.781695 
	C259.987427,26.383667 259.987427,43.779613 259.909912,61.648403 
z"/>
<path fill="#8D1617" opacity="1.000000" stroke="none" 
	d="
M194.033401,62.659561 
	C193.355927,63.580463 192.784363,64.607201 191.985382,65.406670 
	C175.211090,82.191261 158.411133,98.950180 141.309814,115.839470 
	C140.996017,98.426743 140.988617,80.888672 140.970581,62.915924 
	C158.383179,62.385029 175.806396,62.288815 193.623169,62.333405 
	C194.016724,62.474209 194.033401,62.659561 194.033401,62.659561 
z"/>
<path fill="#922020" opacity="1.000000" stroke="none" 
	d="
M190.404327,208.288879 
	C189.056000,208.214142 188.008469,207.827820 187.063339,208.000854 
	C180.651093,209.174911 175.905289,206.480591 174.910156,200.976364 
	C173.764618,194.640274 177.311646,189.034546 183.374039,187.846466 
	C185.108307,187.506592 186.936066,187.643646 189.583313,187.522598 
	C188.786392,184.392395 188.025970,181.405533 187.095139,177.749344 
	C188.494308,177.401260 191.186752,176.731445 194.021164,176.026291 
	C194.021164,184.135757 193.880157,191.914154 194.105667,199.681900 
	C194.174820,202.063843 195.248215,204.416641 196.004089,207.331741 
	C194.851700,207.530182 192.802109,207.883148 190.404327,208.288879 
M188.267395,191.616196 
	C186.257324,191.492783 183.671249,190.519669 182.351379,191.414398 
	C179.131714,193.597061 179.440002,201.976761 182.573608,204.427216 
	C183.591553,205.223221 185.578598,205.849106 186.538544,205.373779 
	C187.684235,204.806458 188.761703,203.022339 188.880463,201.678040 
	C189.153351,198.588989 188.827148,195.446991 188.267395,191.616196 
z"/>
<path fill="#952627" opacity="1.000000" stroke="none" 
	d="
M43.826897,182.177338 
	C41.307350,179.505814 38.583920,178.622620 36.274967,181.304413 
	C33.792618,184.187592 35.861912,186.613434 38.233540,188.422974 
	C40.336586,190.027557 42.661507,191.346115 44.917011,192.744934 
	C48.231762,194.800720 50.354073,197.973953 48.869999,201.502335 
	C47.741348,204.185684 45.030212,207.163422 42.385784,208.003311 
	C39.167938,209.025314 34.873585,208.826599 31.842136,207.427948 
	C30.110130,206.628860 29.963984,202.392487 29.103800,199.703766 
	C29.672785,199.496506 30.241768,199.289230 30.810751,199.081970 
	C31.860094,200.646423 32.597527,202.661011 34.038849,203.659790 
	C35.783855,204.869003 38.151783,205.811325 40.196449,205.716095 
	C41.399750,205.660080 43.489548,203.304016 43.413269,202.093796 
	C43.298035,200.265594 41.974388,198.176361 40.554974,196.850235 
	C38.646923,195.067612 35.600075,194.340851 34.062798,192.366196 
	C32.193771,189.965408 30.289555,186.701324 30.383205,183.876419 
	C30.516687,179.850082 34.250355,177.902710 38.075928,177.226089 
	C45.413818,175.928253 47.952557,178.339890 47.316364,187.251785 
	C45.816643,185.058838 44.939568,183.776352 43.826897,182.177338 
z"/>
<path fill="#911E1E" opacity="1.000000" stroke="none" 
	d="
M100.080544,208.238876 
	C96.480881,208.238876 92.881210,208.238876 90.126923,208.238876 
	C90.758141,205.164291 91.842979,202.184387 91.851837,199.201309 
	C91.861046,196.100601 90.830139,192.996796 90.111107,189.124420 
	C94.146187,188.724869 99.374138,187.834167 104.586609,187.917068 
	C106.162193,187.942108 108.472054,190.409637 109.065727,192.212677 
	C109.964378,194.942001 109.447792,198.103043 109.924843,201.016434 
	C110.297226,203.290649 111.266144,205.467178 112.174088,208.330872 
	C109.494247,208.330872 106.170868,208.330872 102.413696,207.886765 
	C104.992195,204.820435 106.158524,195.501236 103.568459,192.728928 
	C102.722740,191.823654 100.851730,191.162888 99.715012,191.448059 
	C98.627434,191.720901 97.127464,193.362778 97.120155,194.412064 
	C97.086868,199.190704 95.495506,204.424103 100.080544,208.238876 
z"/>
<path fill="#932323" opacity="1.000000" stroke="none" 
	d="
M131.837280,199.682343 
	C131.300171,194.191925 133.343124,190.353012 137.977493,188.430389 
	C142.272232,186.648666 146.568314,187.293335 149.892166,190.802551 
	C153.018616,194.103378 153.808853,198.094971 151.958847,202.335419 
	C150.002228,206.820190 146.306610,208.844208 141.562729,208.511597 
	C136.371658,208.147629 132.948685,205.381760 131.837280,199.682343 
M143.068405,190.312088 
	C137.271637,190.703644 134.925873,197.831085 138.903732,203.541138 
	C139.728851,204.725571 141.559494,205.966400 142.828613,205.871338 
	C144.092422,205.776688 145.851837,204.258102 146.315399,202.974411 
	C147.934662,198.490295 147.544418,194.176315 143.068405,190.312088 
z"/>
<path fill="#646464" opacity="1.000000" stroke="none" 
	d="
M28.962070,246.233246 
	C31.615675,237.383301 34.455063,228.740692 37.486259,220.165894 
	C37.814423,219.237534 39.189144,218.286301 40.199219,218.130905 
	C40.864910,218.028488 42.159767,219.183594 42.468674,220.032028 
	C45.580994,228.580261 48.547630,237.181519 51.618469,245.948471 
	C48.085712,247.524689 47.347580,245.356796 46.895737,242.973160 
	C46.228443,239.452927 44.714725,237.727005 40.609257,237.869980 
	C36.584152,238.010147 33.635788,238.197449 32.841919,243.048615 
	C32.629040,244.349457 30.469507,245.331757 28.962070,246.233246 
M42.124432,228.344193 
	C41.546352,226.586441 40.968269,224.828690 39.921104,221.644623 
	C38.209091,226.865311 37.012417,230.514511 35.688652,234.551254 
	C38.728725,234.551254 41.218460,234.551254 44.138359,234.551254 
	C43.472893,232.466629 42.933884,230.778152 42.124432,228.344193 
z"/>
<path fill="#932323" opacity="1.000000" stroke="none" 
	d="
M76.100990,196.962341 
	C76.658615,194.773605 77.728851,191.509720 76.809845,190.791580 
	C74.235397,188.779938 73.607201,191.398575 72.628082,193.464630 
	C72.168655,194.434067 70.035027,194.610077 67.991898,195.405975 
	C69.328918,189.894043 73.557793,187.064651 78.183754,187.533539 
	C82.963051,188.017960 83.315063,191.417160 83.212593,195.145706 
	C83.162514,196.967911 82.896973,198.861511 83.286278,200.597839 
	C83.717583,202.521484 84.785393,204.302414 86.496323,205.901031 
	C86.456619,206.056686 86.469025,206.271194 86.369514,206.359283 
	C84.445030,208.063049 71.668488,209.125488 69.656189,207.762711 
	C67.045044,205.994415 67.024765,201.679077 69.876694,199.710938 
	C71.607597,198.516403 73.748756,197.916321 76.100990,196.962341 
M77.224968,204.756607 
	C77.603973,202.994934 77.982971,201.233261 78.361977,199.471603 
	C77.918999,199.218933 77.476028,198.966278 77.033051,198.713623 
	C75.670738,200.066956 74.308426,201.420303 72.946121,202.773651 
	C74.109787,203.530914 75.273453,204.288177 77.224968,204.756607 
z"/>
<path fill="#922222" opacity="1.000000" stroke="none" 
	d="
M130.583572,181.022598 
	C127.450157,177.310654 125.566406,178.450531 124.515961,182.144348 
	C124.028664,183.857895 124.096931,185.729431 123.883438,187.822601 
	C125.847794,188.292755 127.613419,188.715347 129.379044,189.137924 
	C129.405273,189.521667 129.431503,189.905426 129.457718,190.289169 
	C127.775620,190.767715 126.093513,191.246246 123.919128,191.864822 
	C125.258423,197.025925 121.300133,203.078323 127.369957,207.966766 
	C123.435425,207.966766 119.921188,207.966766 117.167999,207.966766 
	C117.753380,205.023010 118.964729,201.918289 118.802345,198.887161 
	C118.647560,195.998047 121.600021,191.665253 116.455856,190.750580 
	C117.478050,188.437759 118.611023,186.438141 119.262596,184.292358 
	C121.080490,178.305634 126.024872,174.680222 131.088150,176.158600 
	C132.202881,176.484070 132.968018,178.006851 133.894165,178.978302 
	C132.898483,179.718704 131.902802,180.459106 130.583572,181.022598 
z"/>
<path fill="#1E1E1E" opacity="1.000000" stroke="none" 
	d="
M57.942436,267.821716 
	C57.942467,264.244995 57.942467,261.128571 57.942467,258.012177 
	C58.355667,257.847931 58.768867,257.683685 59.182064,257.519440 
	C59.757481,258.430847 60.811710,259.331909 60.831615,260.255249 
	C60.974861,266.899109 60.908321,273.547455 60.908321,280.160370 
	C57.482742,280.627167 57.490932,280.622498 53.733307,274.041595 
	C51.979115,270.969421 50.186176,267.919373 47.227234,265.187897 
	C47.227234,270.357117 47.227234,275.526337 47.227234,281.006561 
	C43.931419,279.236023 43.654629,276.273468 44.558075,258.542694 
	C47.849953,257.854919 47.847107,257.856537 51.594429,264.390350 
	C53.402481,267.542877 55.223507,270.688019 57.942406,273.822510 
	C57.942406,271.975677 57.942406,270.128845 57.942436,267.821716 
z"/>
<path fill="#181818" opacity="1.000000" stroke="none" 
	d="
M212.009949,279.396179 
	C209.483795,282.406952 208.360977,280.204895 207.289841,278.391846 
	C204.634644,273.897614 202.074036,269.347473 199.475418,264.819794 
	C199.025391,264.914062 198.575363,265.008331 198.125336,265.102600 
	C198.125336,270.333923 198.125336,275.565216 198.125336,281.464508 
	C195.091095,278.817719 194.470825,269.655609 195.913498,257.114807 
	C203.149185,260.809326 203.608383,268.863312 208.955780,274.232880 
	C208.955780,269.493805 208.869873,265.208374 209.016769,260.930969 
	C209.053070,259.874329 209.845871,258.843658 210.290894,257.801025 
	C210.875366,258.870056 211.935593,259.926056 211.965317,261.010284 
	C212.129196,266.989563 212.041489,272.975708 212.009949,279.396179 
z"/>
<path fill="#161616" opacity="1.000000" stroke="none" 
	d="
M166.333069,280.662415 
	C161.201477,281.630646 156.801346,281.147156 154.204849,276.531250 
	C151.592316,271.886810 151.577225,266.924347 154.147217,262.258942 
	C157.386047,256.379425 165.434998,255.707138 169.943420,261.902405 
	C167.774780,261.398376 166.528076,260.730103 165.441895,260.930817 
	C162.747726,261.428528 158.332123,261.711823 157.832138,263.179535 
	C156.608536,266.771545 156.500351,271.158020 157.411102,274.864014 
	C157.789505,276.403809 161.932846,277.811096 164.317307,277.738647 
	C165.553146,277.701111 166.686844,274.302948 168.207886,271.879395 
	C165.228561,271.309387 163.685791,271.014221 162.143036,270.719086 
	C162.113907,270.231354 162.084778,269.743622 162.055649,269.255890 
	C164.501205,269.042877 166.946747,268.829865 170.222153,268.544586 
	C168.893646,272.933685 172.850311,277.925201 166.333069,280.662415 
z"/>
<path fill="#982D2D" opacity="1.000000" stroke="none" 
	d="
M170.672668,193.127472 
	C165.105087,190.978622 163.630280,191.735336 163.714508,197.278702 
	C163.768661,200.842697 164.713760,204.393158 165.282806,208.101456 
	C162.867416,208.101456 159.182739,208.101456 155.309418,208.101456 
	C159.714783,203.312668 159.618301,193.758286 154.526993,189.736496 
	C157.558762,189.055176 159.988388,188.393051 162.460434,187.993362 
	C164.186584,187.714279 165.986145,187.616684 167.724518,187.766907 
	C169.287994,187.901993 170.812759,188.485077 172.354599,188.870544 
	C171.928696,190.274551 171.502777,191.678543 170.672668,193.127472 
z"/>
<path fill="#2A2A2A" opacity="1.000000" stroke="none" 
	d="
M183.032379,257.723541 
	C185.564545,257.723572 187.655411,257.723572 189.746262,257.723572 
	C189.842468,258.422607 189.938660,259.121643 190.034866,259.820679 
	C186.749512,260.251221 183.464157,260.681732 179.926208,261.145386 
	C179.926208,262.874237 179.926208,264.641266 179.926208,266.444336 
	C182.625854,266.972900 185.386765,267.497772 188.127869,268.111145 
	C188.230560,268.134125 188.140945,269.016602 188.140945,269.893860 
	C185.524139,269.893860 182.940079,269.893860 180.012054,269.893860 
	C180.012054,272.652313 180.012054,275.035156 180.012054,277.862976 
	C183.184402,277.862976 186.447617,277.862976 189.787094,277.862976 
	C189.129852,281.220367 185.865433,281.779205 176.620789,280.440094 
	C176.620789,273.073761 176.620789,265.661163 176.620789,257.723511 
	C178.679626,257.723511 180.635345,257.723511 183.032379,257.723541 
z"/>
<path fill="#1D1D1D" opacity="1.000000" stroke="none" 
	d="
M244.888336,277.920898 
	C248.185989,277.941986 250.981232,277.941986 253.776459,277.941986 
	C253.825714,278.442657 253.874954,278.943359 253.924194,279.444031 
	C249.970932,282.551025 245.127045,280.066711 240.425140,281.086731 
	C240.425140,273.143036 240.425140,265.726196 240.425140,258.372559 
	C244.771347,258.372559 249.174088,258.372559 253.576828,258.372559 
	C253.611557,258.977722 253.646286,259.582916 253.681015,260.188080 
	C250.331451,260.427155 246.981873,260.666199 243.448364,260.918365 
	C243.448364,262.976135 243.448364,264.760162 243.448364,266.555389 
	C246.375580,267.030212 249.343842,267.511719 252.312088,267.993195 
	C252.200836,268.620178 252.089569,269.247162 251.978317,269.874146 
	C249.233063,269.874146 246.487808,269.874146 242.797424,269.874146 
	C243.402405,272.930786 243.894150,275.415314 244.888336,277.920898 
z"/>
<path fill="#616161" opacity="1.000000" stroke="none" 
	d="
M57.040958,225.223511 
	C60.775291,224.572342 64.532333,223.928345 68.118286,224.453247 
	C69.612297,224.671951 71.833679,227.405746 71.797729,228.951096 
	C71.733482,231.712280 70.207703,234.439453 69.292969,237.180832 
	C68.747780,237.110031 68.202591,237.039215 67.657402,236.968414 
	C69.250298,239.966019 70.843193,242.963623 72.591927,246.254486 
	C68.070763,247.339600 67.983932,243.495422 66.471954,241.553513 
	C64.862602,239.486542 64.498734,235.805786 60.016369,237.474060 
	C60.016369,239.571045 60.123222,241.884277 59.957695,244.177841 
	C59.900715,244.967392 59.164272,245.707901 58.738228,246.470810 
	C58.153564,245.703125 57.079128,244.946274 57.061848,244.166016 
	C56.925583,238.013977 56.991165,231.857468 57.040958,225.223511 
M67.616974,233.173080 
	C67.808769,231.389832 68.692719,228.399979 68.067360,228.041229 
	C65.867386,226.779251 63.148895,226.421188 60.339035,225.639999 
	C60.339035,229.256683 60.339035,231.797455 60.339035,234.852570 
	C62.838417,234.410263 64.914490,234.042877 67.616974,233.173080 
z"/>
<path fill="#141414" opacity="1.000000" stroke="none" 
	d="
M99.724747,257.794342 
	C100.947655,260.310760 100.954468,260.437378 98.971733,260.544067 
	C96.493805,260.677399 94.003258,260.576111 91.278252,260.576111 
	C91.278252,262.726227 91.278252,264.657410 91.278252,266.584991 
	C94.249809,267.095093 97.178421,267.597809 100.107040,268.100555 
	C99.995895,268.709045 99.884758,269.317566 99.773613,269.926086 
	C97.012505,269.926086 94.251404,269.926086 91.266739,269.926086 
	C91.266739,272.740814 91.266739,275.141571 91.266739,278.115570 
	C94.748047,278.115570 98.129288,278.115570 101.510536,278.115570 
	C101.538177,278.597473 101.565819,279.079407 101.593460,279.561310 
	C97.669823,282.479370 92.917931,280.006012 88.304153,281.123199 
	C88.304153,273.260529 88.304153,265.853699 88.304153,257.783173 
	C91.860870,257.783173 95.603638,257.783173 99.724747,257.794342 
z"/>
<path fill="#676767" opacity="1.000000" stroke="none" 
	d="
M170.679230,225.470917 
	C172.367661,225.189240 175.035812,224.840286 175.261353,225.428253 
	C177.846268,232.167252 180.059723,239.048721 182.372192,245.892227 
	C181.819946,246.236130 181.267715,246.580032 180.715469,246.923935 
	C179.824371,245.661850 178.423126,244.501984 178.145630,243.116959 
	C177.518326,239.985916 175.574539,239.836227 173.034515,239.832932 
	C170.491745,239.829636 168.544678,239.989288 167.935715,243.116333 
	C167.663330,244.514999 166.352936,245.711502 165.513596,246.999741 
	C164.937256,246.731125 164.360931,246.462509 163.784592,246.193893 
	C166.031189,239.408875 168.277786,232.623856 170.679230,225.470917 
M171.733261,231.322342 
	C171.204605,233.092926 170.675949,234.863525 170.126480,236.703796 
	C172.383286,236.703796 174.089783,236.703796 176.107712,236.703796 
	C175.146957,233.681473 174.302948,231.026398 173.085114,227.195389 
	C172.416885,229.166122 172.173950,229.882584 171.733261,231.322342 
z"/>
<path fill="#787878" opacity="1.000000" stroke="none" 
	d="
M120.543991,224.286880 
	C119.517914,225.191681 118.286255,226.078369 116.943420,226.304321 
	C115.180145,226.601013 113.329292,226.377136 111.133545,226.377136 
	C111.133545,228.799271 111.133545,230.852966 111.133545,233.300140 
	C113.785431,233.494461 116.358841,233.683044 118.964478,233.873978 
	C118.383400,236.235931 118.383400,236.235931 110.730858,237.243439 
	C110.730858,239.410461 110.878410,241.691818 110.660240,243.937653 
	C110.569458,244.872208 109.698860,245.730972 109.182861,246.624207 
	C108.544449,245.686874 107.377045,244.762909 107.352974,243.810059 
	C107.189644,237.345032 107.267616,230.873901 107.267616,223.974808 
	C111.815422,223.974808 116.052185,223.974808 120.543991,224.286880 
z"/>
<path fill="#912020" opacity="1.000000" stroke="none" 
	d="
M61.952374,188.148621 
	C63.320450,188.619461 64.279045,189.080429 65.237640,189.541397 
	C65.125893,189.907074 65.014137,190.272766 64.902390,190.638458 
	C63.173225,190.850571 61.444057,191.062683 59.720844,191.274063 
	C58.540085,204.792831 58.695030,206.444931 64.801071,205.395187 
	C64.959358,205.811646 65.117645,206.228104 65.275932,206.644562 
	C63.269714,207.261902 61.002197,208.762878 59.325176,208.266968 
	C57.346531,207.681854 55.065754,205.655106 54.390579,203.734894 
	C53.501701,201.206863 54.093414,198.171860 53.964680,195.358658 
	C53.862049,193.116013 55.273003,190.004074 50.891987,189.692215 
	C52.154301,188.683426 53.636009,187.849503 54.618099,186.617355 
	C55.629101,185.348923 56.153008,183.692261 56.890026,182.205444 
	C57.281849,182.826340 57.673672,183.447235 58.065495,184.068130 
	C59.224628,185.425003 60.383759,186.781860 61.952374,188.148621 
z"/>
<path fill="#181818" opacity="1.000000" stroke="none" 
	d="
M222.941895,258.789124 
	C227.389282,256.721344 231.142715,256.803833 234.445923,261.014404 
	C229.749130,261.144867 223.779053,258.186371 222.094238,265.178070 
	C221.397446,268.069672 221.491943,271.529724 222.410172,274.345245 
	C223.833908,278.710754 227.830566,279.145966 234.482361,275.800964 
	C234.236420,277.222107 234.392075,278.376587 233.889877,278.900726 
	C229.748245,283.223358 221.604599,281.192963 219.011963,275.273651 
	C216.535233,269.618958 217.904282,263.427216 222.941895,258.789124 
z"/>
<path fill="#6A6A6A" opacity="1.000000" stroke="none" 
	d="
M137.704254,235.905029 
	C139.103546,243.728973 141.231796,244.924484 148.561310,242.530136 
	C149.169861,242.331314 149.954987,242.673096 150.658081,242.763733 
	C150.390045,243.581436 150.269684,245.011139 149.829941,245.117233 
	C147.042557,245.789825 144.038727,246.961777 141.381729,246.472717 
	C136.607468,245.593948 133.728973,240.079819 134.138977,234.285599 
	C134.570343,228.189224 137.890594,224.067978 143.046600,223.229034 
	C146.915314,222.599564 149.552383,224.214081 149.822556,226.730377 
	C146.800720,226.966705 143.132294,226.244019 140.966293,227.722473 
	C139.013672,229.055252 138.706482,232.798676 137.704254,235.905029 
z"/>
<path fill="#121212" opacity="1.000000" stroke="none" 
	d="
M76.032494,274.819580 
	C76.032501,277.093781 76.032501,278.894958 76.032501,281.457062 
	C70.607994,279.168243 73.332726,275.025940 72.909775,272.113373 
	C72.394135,268.562592 72.787140,264.879883 72.787140,261.269104 
	C70.224998,260.695496 67.983116,260.193604 65.741234,259.691681 
	C65.833176,259.261017 65.925117,258.830322 66.017067,258.399658 
	C71.624603,258.399658 77.232147,258.399658 82.839684,258.399658 
	C82.897675,258.887024 82.955658,259.374390 83.013649,259.861725 
	C80.797844,260.233978 78.582031,260.606201 76.032486,261.034515 
	C76.032486,265.401001 76.032486,269.873779 76.032494,274.819580 
z"/>
<path fill="#181818" opacity="1.000000" stroke="none" 
	d="
M130.803345,277.953247 
	C133.420837,277.955322 135.558350,277.955322 137.706100,277.955322 
	C137.450043,281.354065 135.921783,281.658386 125.754578,280.533661 
	C123.874344,271.739594 124.893112,258.931122 128.228424,257.718079 
	C128.228424,263.492126 128.112259,269.039581 128.323425,274.574585 
	C128.367294,275.723846 129.625046,276.826843 130.803345,277.953247 
z"/>
<path fill="#F3E7E7" opacity="1.000000" stroke="none" 
	d="
M100.211182,208.437408 
	C95.495506,204.424103 97.086868,199.190704 97.120155,194.412064 
	C97.127464,193.362778 98.627434,191.720901 99.715012,191.448059 
	C100.851730,191.162888 102.722740,191.823654 103.568459,192.728928 
	C106.158524,195.501236 104.992195,204.820435 101.948822,207.841400 
	C101.392426,208.372086 100.867126,208.504028 100.211182,208.437408 
z"/>
<path fill="#646464" opacity="1.000000" stroke="none" 
	d="
M186.988983,244.599991 
	C186.972519,238.328781 186.894562,232.517075 187.047958,226.711472 
	C187.073074,225.760452 188.117126,224.836319 188.690247,223.899750 
	C189.136185,224.798508 189.948044,225.689194 189.968094,226.597351 
	C190.088852,232.066925 190.028076,237.540512 190.028076,243.544388 
	C193.398026,243.705078 196.605438,243.858017 199.959549,244.017944 
	C198.291931,247.261169 190.665314,247.678421 186.988983,244.599991 
z"/>
<path fill="#090909" opacity="1.000000" stroke="none" 
	d="
M110.186157,272.825378 
	C110.255341,274.758881 110.324638,276.212463 110.413284,278.071960 
	C113.773262,278.071960 116.857338,278.071960 119.941406,278.071960 
	C116.302895,282.610992 111.638840,279.980621 106.987587,280.968384 
	C106.987587,273.660889 106.933250,266.885803 107.062721,260.114227 
	C107.077370,259.347565 108.127052,258.600708 108.696793,257.844666 
	C109.192589,258.686737 110.083504,259.513550 110.116623,260.373444 
	C110.270111,264.359100 110.185562,268.353912 110.186157,272.825378 
z"/>
<path fill="#646464" opacity="1.000000" stroke="none" 
	d="
M82.797104,241.732697 
	C82.797325,236.492722 82.797325,231.716995 82.797325,226.664337 
	C80.310585,226.326050 78.168915,226.034698 76.027245,225.743347 
	C76.049538,225.335037 76.071831,224.926712 76.094124,224.518387 
	C81.604202,224.518387 87.114273,224.518387 92.624352,224.518387 
	C92.693169,224.876617 92.761986,225.234863 92.830811,225.593094 
	C90.769775,225.896332 88.708748,226.199570 86.351395,226.546417 
	C84.833687,233.016129 87.026886,240.067383 85.203674,246.608856 
	C84.573219,246.600342 83.942757,246.591812 83.312302,246.583298 
	C83.140495,245.121185 82.968689,243.659073 82.797104,241.732697 
z"/>
<path fill="#313131" opacity="1.000000" stroke="none" 
	d="
M143.359116,280.271729 
	C143.148117,272.754120 143.148117,265.628815 143.148117,258.503479 
	C143.475296,258.167145 143.802475,257.830780 144.129639,257.494446 
	C144.984192,258.493561 146.535263,259.463867 146.577896,260.496521 
	C146.817093,266.288513 146.661102,272.095795 146.708069,277.897308 
	C146.726105,280.125336 146.216614,281.553955 143.359116,280.271729 
z"/>
<path fill="#797979" opacity="1.000000" stroke="none" 
	d="
M128.960632,240.792191 
	C128.953461,242.424225 129.166656,243.650909 128.862976,244.732452 
	C128.654541,245.474747 127.727814,246.015350 127.122162,246.646118 
	C126.508636,246.014511 125.375839,245.393997 125.362068,244.749557 
	C125.227005,238.429001 125.211609,232.102768 125.370522,225.783401 
	C125.388161,225.082001 126.701309,224.413193 127.413635,223.729279 
	C127.928169,224.601685 128.858871,225.460648 128.887527,226.348709 
	C129.037750,231.003403 128.959503,235.665451 128.960632,240.792191 
z"/>
<path fill="#797979" opacity="1.000000" stroke="none" 
	d="
M97.257072,234.052185 
	C97.265694,230.907608 97.155846,228.237396 97.365829,225.592575 
	C97.418427,224.930283 98.499443,224.349625 99.107803,223.731445 
	C99.718178,224.334854 100.846123,224.927429 100.859024,225.543365 
	C100.991295,231.860214 100.993317,238.181808 100.875671,244.499161 
	C100.862152,245.225067 99.899521,245.933289 99.376945,246.649719 
	C98.676041,245.937912 97.421860,245.264145 97.369827,244.507706 
	C97.142075,241.196869 97.262726,237.862076 97.257072,234.052185 
z"/>
<path fill="#040404" opacity="1.000000" stroke="none" 
	d="
M35.177090,274.847168 
	C34.799232,277.244141 34.421463,279.161621 34.043690,281.079102 
	C33.361526,280.965393 32.679359,280.851685 31.997192,280.737976 
	C31.997192,271.959991 31.953722,263.181396 32.075325,254.405106 
	C32.085648,253.660233 33.198425,252.930649 33.799049,252.193970 
	C34.257736,253.088867 35.098022,253.977020 35.113991,254.879745 
	C35.228848,261.374054 35.176487,267.871338 35.177090,274.847168 
z"/>
<path fill="#696969" opacity="1.000000" stroke="none" 
	d="
M156.103592,235.977020 
	C156.744339,231.638840 154.759918,227.324188 157.223022,223.798492 
	C157.709946,223.852585 158.196884,223.906662 158.683807,223.960739 
	C158.683807,231.453522 158.683807,238.946289 158.683807,246.439072 
	C154.821533,243.679749 156.643936,239.824661 156.103592,235.977020 
z"/>
<path fill="#5C5B5B" opacity="1.000000" stroke="none" 
	d="
M194.204727,62.749298 
	C194.033401,62.659561 194.016724,62.474209 194.095413,62.420486 
	C194.174103,62.366760 194.536560,62.248974 194.536560,62.248974 
	C194.536560,62.248974 194.791107,62.533474 194.772797,62.726234 
	C194.754501,62.918991 194.376053,62.839039 194.204727,62.749298 
z"/>
<path fill="#FAF6F6" opacity="1.000000" stroke="none" 
	d="
M188.505737,191.971344 
	C188.827148,195.446991 189.153351,198.588989 188.880463,201.678040 
	C188.761703,203.022339 187.684235,204.806458 186.538544,205.373779 
	C185.578598,205.849106 183.591553,205.223221 182.573608,204.427216 
	C179.440002,201.976761 179.131714,193.597061 182.351379,191.414398 
	C183.671249,190.519669 186.257324,191.492783 188.505737,191.971344 
z"/>
<path fill="#FAF5F5" opacity="1.000000" stroke="none" 
	d="
M143.398819,190.514343 
	C147.544418,194.176315 147.934662,198.490295 146.315399,202.974411 
	C145.851837,204.258102 144.092422,205.776688 142.828613,205.871338 
	C141.559494,205.966400 139.728851,204.725571 138.903732,203.541138 
	C134.925873,197.831085 137.271637,190.703644 143.398819,190.514343 
z"/>
<path fill="#F0F0F0" opacity="1.000000" stroke="none" 
	d="
M42.259655,228.716934 
	C42.933884,230.778152 43.472893,232.466629 44.138359,234.551254 
	C41.218460,234.551254 38.728725,234.551254 35.688652,234.551254 
	C37.012417,230.514511 38.209091,226.865311 39.921104,221.644623 
	C40.968269,224.828690 41.546352,226.586441 42.259655,228.716934 
z"/>
<path fill="#F6EEED" opacity="1.000000" stroke="none" 
	d="
M76.831039,204.901016 
	C75.273453,204.288177 74.109787,203.530914 72.946121,202.773651 
	C74.308426,201.420303 75.670738,200.066956 77.033051,198.713623 
	C77.476028,198.966278 77.918999,199.218933 78.361977,199.471603 
	C77.982971,201.233261 77.603973,202.994934 76.831039,204.901016 
z"/>
<path fill="#F4F4F4" opacity="1.000000" stroke="none" 
	d="
M67.303772,233.424286 
	C64.914490,234.042877 62.838417,234.410263 60.339035,234.852570 
	C60.339035,231.797455 60.339035,229.256683 60.339035,225.639999 
	C63.148895,226.421188 65.867386,226.779251 68.067360,228.041229 
	C68.692719,228.399979 67.808769,231.389832 67.303772,233.424286 
z"/>
<path fill="#F0F0F0" opacity="1.000000" stroke="none" 
	d="
M171.832138,230.960693 
	C172.173950,229.882584 172.416885,229.166122 173.085114,227.195389 
	C174.302948,231.026398 175.146957,233.681473 176.107712,236.703796 
	C174.089783,236.703796 172.383286,236.703796 170.126480,236.703796 
	C170.675949,234.863525 171.204605,233.092926 171.832138,230.960693 
z"/>
</svg>